<svg xmlns="http://www.w3.org/2000/svg" xmlns:xlink="http://www.w3.org/1999/xlink" id="Layer_1" viewBox="0 0 180 180"><defs><style>      .st0 {        fill: #212121;        stroke: #e0e0e0;        stroke-opacity: .8;        stroke-width: 8.9px;      }      .st1 {        fill: url(#linear-gradient2);      }      .st2 {        fill: url(#linear-gradient3);      }      .st3 {        fill: url(#linear-gradient4);      }      .st4 {        fill: url(#linear-gradient);        stroke: url(#linear-gradient1);        stroke-linejoin: round;        stroke-width: 7.4px;      }    </style><linearGradient id="linear-gradient" x1="-381.4" y1="192.1" x2="-372.5" y2="201" gradientTransform="translate(1978.5 -1277.5) scale(5 7)" gradientUnits="userSpaceOnUse"><stop offset="0" stop-color="#00d2ff"></stop><stop offset="1" stop-color="#3a7bd5"></stop></linearGradient><linearGradient id="linear-gradient1" x1="-381.4" y1="192.1" x2="-372.5" y2="201" xlink:href="#linear-gradient"></linearGradient><linearGradient id="linear-gradient2" x1="-230.1" y1="482.8" x2="-220.5" y2="492.4" gradientTransform="translate(498.5 -885) scale(2)" xlink:href="#linear-gradient"></linearGradient><linearGradient id="linear-gradient3" x1="-197" y1="501.6" x2="-187.4" y2="511.3" gradientTransform="translate(506.3 -880.5) scale(2)" xlink:href="#linear-gradient"></linearGradient><linearGradient id="linear-gradient4" x1="-197" y1="463.2" x2="-187.4" y2="472.9" gradientTransform="translate(506.3 -889.5) scale(2)" xlink:href="#linear-gradient"></linearGradient></defs><path class="st0" d="M161.5,38.1l-19.2-19.2c-7.4-7.4-17-11.1-27.4-11.1h-48.8c-10.4,0-20,4.4-27.4,11.1l-19.2,19.2c-7.4,7.4-11.1,17-11.1,27.4v48.8c0,10.4,4.4,20,11.1,27.4l19.2,19.2c7.4,7.4,17,11.1,27.4,11.1h48.8c10.4,0,20-4.4,27.4-11.1l19.2-19.2c7.4-7.4,11.1-17,11.1-27.4v-48.8c0-10.4-4.4-20-11.1-27.4Z"></path><path class="st4" d="M123.8,89.9l-48.1,33.3V56.6l48.1,33.3Z"></path><circle class="st1" cx="47.6" cy="89.9" r="9.6"></circle><circle class="st2" cx="122.3" cy="132.8" r="9.6"></circle><circle class="st3" cx="122.3" cy="47" r="9.6"></circle></svg>