<svg xmlns="http://www.w3.org/2000/svg" width="180" height="180" viewBox="0 0 180 180" fill="none">
  <path d="M94.5001 180C142.115 177.654 180 138.282 180 90.0553C180 75.2565 176.433 61.2914 170.111 48.974C144.764 63.6171 132.091 70.9386 122.507 80.806C111.061 92.59 102.724 107.038 98.2481 122.849C94.5001 136.088 94.5001 150.725 94.5001 180Z" fill="url(#paint0_radial_1047_1232)"></path>
  <path d="M85.5001 180C37.8851 177.654 0 138.282 0 90.0553C0 75.2564 3.56744 61.2913 9.88876 48.974C35.2358 63.6171 47.9093 70.9386 57.4937 80.806C68.9397 92.59 77.2761 107.038 81.7521 122.849C85.5001 136.088 85.5001 150.725 85.5001 180Z" fill="url(#paint1_radial_1047_1232)"></path>
  <path d="M14.3959 41.1791C39.7405 55.8207 52.4127 63.1416 65.7492 66.5132C81.6664 70.5372 98.3338 70.5372 114.251 66.5132C127.587 63.1416 140.26 55.8208 165.604 41.1791C149.571 16.3981 121.699 0 90 0C58.301 0 30.4295 16.3981 14.3959 41.1791Z" fill="url(#paint2_radial_1047_1232)"></path>
  <defs>
    <radialGradient id="paint0_radial_1047_1232" cx="0" cy="0" r="1" gradientUnits="userSpaceOnUse" gradientTransform="translate(90 90) rotate(90) scale(90)">
      <stop stop-color="#BEF264"></stop>
      <stop offset="1" stop-color="#64F2B4"></stop>
    </radialGradient>
    <radialGradient id="paint1_radial_1047_1232" cx="0" cy="0" r="1" gradientUnits="userSpaceOnUse" gradientTransform="translate(90 90) rotate(90) scale(90)">
      <stop stop-color="#BEF264"></stop>
      <stop offset="1" stop-color="#64F2B4"></stop>
    </radialGradient>
    <radialGradient id="paint2_radial_1047_1232" cx="0" cy="0" r="1" gradientUnits="userSpaceOnUse" gradientTransform="translate(90 90) rotate(90) scale(90)">
      <stop stop-color="#BEF264"></stop>
      <stop offset="1" stop-color="#64F2B4"></stop>
    </radialGradient>
  </defs>
</svg>