<svg xmlns="http://www.w3.org/2000/svg" width="80" height="80" viewBox="0 0 80 80" fill="none"><path d="M0 38.4C0 24.9587 0 18.2381 2.61584 13.1042C4.9168 8.58834 8.58834 4.9168 13.1042 2.61584C18.2381 0 24.9587 0 38.4 0H41.6C55.0413 0 61.7619 0 66.8958 2.61584C71.4117 4.9168 75.0832 8.58834 77.3842 13.1042C80 18.2381 80 24.9587 80 38.4V41.6C80 55.0413 80 61.7619 77.3842 66.8958C75.0832 71.4117 71.4117 75.0832 66.8958 77.3842C61.7619 80 55.0413 80 41.6 80H38.4C24.9587 80 18.2381 80 13.1042 77.3842C8.58834 75.0832 4.9168 71.4117 2.61584 66.8958C0 61.7619 0 55.0413 0 41.6V38.4Z" fill="#191919"></path><g clip-path="url(#clip0_1182_2275)"><path d="M24.1026 16H55.8975C60.718 16 64.6154 19.8974 64.6154 24.7179V55.2821C64.6154 60.1026 60.718 64 55.8975 64H24.1026C19.2821 64 15.3846 60.1026 15.3846 55.2821V24.7179C15.3846 19.8974 19.2821 16 24.1026 16Z" fill="#470137"></path><path d="M41.2718 28.6155L35.1179 38.7694L41.682 49.5386C41.7231 49.6206 41.7436 49.7027 41.7231 49.7847C41.7025 49.8668 41.6205 49.8053 41.4974 49.8258H36.8C36.4718 49.8258 36.2461 49.8053 36.1025 49.6001C35.6718 48.7386 35.2205 47.8976 34.7897 47.036C34.3589 46.195 33.8872 45.3335 33.3948 44.4514C32.9025 43.5694 32.4102 42.6873 31.9179 41.7847H31.8769C31.4461 42.6668 30.9743 43.5489 30.5025 44.4309C30.0307 45.313 29.5589 46.195 29.1077 47.0565C28.6359 47.9181 28.1641 48.8001 27.6923 49.6412C27.6102 49.8463 27.4461 49.8668 27.2205 49.8668H22.7077C22.6256 49.8668 22.5641 49.9078 22.5641 49.8053C22.5436 49.7232 22.5641 49.6412 22.6051 49.5796L28.9846 39.1181L22.7692 28.595C22.7077 28.513 22.6872 28.4309 22.7282 28.3899C22.7692 28.3283 22.8513 28.3078 22.9333 28.3078H27.5897C27.6923 28.3078 27.7948 28.3283 27.8769 28.3488C27.9589 28.3899 28.0205 28.4514 28.082 28.5335C28.4718 29.4155 28.9231 30.2976 29.3948 31.1796C29.8872 32.0617 30.3589 32.9232 30.8718 33.7847C31.3641 34.6463 31.8154 35.5078 32.2461 36.3899H32.2872C32.7179 35.4873 33.1692 34.6053 33.6205 33.7437C34.0718 32.8822 34.5436 32.0206 35.0154 31.1591C35.4872 30.2976 35.9384 29.4155 36.3897 28.5745C36.4102 28.4924 36.4513 28.4104 36.5128 28.3694C36.5948 28.3283 36.6769 28.3078 36.7795 28.3283H41.1077C41.2102 28.3078 41.3128 28.3694 41.3333 28.4719C41.3538 28.4924 41.3128 28.5745 41.2718 28.6155ZM50.7487 50.2565C49.2307 50.2771 47.7128 49.9694 46.3384 49.3335C45.0461 48.7386 43.9795 47.754 43.241 46.5437C42.482 45.2924 42.1128 43.7335 42.1128 41.8668C42.0923 40.3488 42.482 38.8514 43.241 37.5386C44.0205 36.2053 45.1487 35.0976 46.5025 34.3591C47.9384 33.5591 49.6615 33.1694 51.6923 33.1694C51.7948 33.1694 51.9384 33.1694 52.1231 33.1899C52.3077 33.2104 52.5128 33.2104 52.7589 33.2309V26.7488C52.7589 26.6053 52.8205 26.5232 52.9641 26.5232H57.1282C57.2307 26.5027 57.3128 26.5847 57.3333 26.6668V46.236C57.3333 46.6053 57.3538 47.0155 57.3743 47.4668C57.4154 47.8976 57.4359 48.3078 57.4564 48.6565C57.4564 48.8001 57.3948 48.9232 57.2513 48.9847C56.1846 49.436 55.0564 49.7642 53.9077 49.9694C52.8615 50.154 51.8154 50.2565 50.7487 50.2565ZM52.7589 46.154V37.1283C52.5743 37.0873 52.3897 37.0463 52.2051 37.0258C51.9795 37.0053 51.7538 36.9847 51.5282 36.9847C50.7282 36.9847 49.9282 37.1488 49.2102 37.5181C48.5128 37.8668 47.9179 38.3796 47.4666 39.036C47.0154 39.6924 46.7897 40.5745 46.7897 41.6412C46.7692 42.3591 46.8923 43.0771 47.1384 43.754C47.3436 44.3078 47.6513 44.8001 48.0615 45.2104C48.4513 45.5796 48.9231 45.8668 49.4564 46.0309C50.0102 46.2155 50.5846 46.2976 51.1589 46.2976C51.4666 46.2976 51.7538 46.2771 52.0205 46.2565C52.2872 46.2771 52.5128 46.236 52.7589 46.154Z" fill="#FF61F6"></path></g><defs><clipPath id="clip0_1182_2275"><rect width="49.2308" height="48" fill="white" transform="translate(15.3846 16)"></rect></clipPath></defs></svg>