<svg xmlns="http://www.w3.org/2000/svg" id="Layer_1" version="1.1" viewBox="0 0 80 80">
  <defs>
    <style>
      .st0 {
        fill: #eb1000;
      }

      .st1 {
        fill: #fff;
      }

      .st2 {
        fill: #191919;
      }
    </style>
  </defs>
  <path class="st2" d="M0,38.4c0-13.4,0-20.2,2.6-25.3,2.3-4.5,6-8.2,10.5-10.5C18.2,0,25,0,38.4,0h3.2C55,0,61.8,0,66.9,2.6c4.5,2.3,8.2,6,10.5,10.5,2.6,5.1,2.6,11.9,2.6,25.3v3.2c0,13.4,0,20.2-2.6,25.3-2.3,4.5-6,8.2-10.5,10.5-5.1,2.6-11.9,2.6-25.3,2.6h-3.2c-13.4,0-20.2,0-25.3-2.6-4.5-2.3-8.2-6-10.5-10.5-2.6-5.1-2.6-11.9-2.6-25.3v-3.2Z"></path>
  <g>
    <g id="a">
      <g id="b">
        <g id="c">
          <rect class="st0" x="15.4" y="16" width="49.2" height="48" rx="8.7" ry="8.7"></rect>
        </g>
      </g>
    </g>
    <g id="d">
      <g id="e">
        <path class="st1" d="M42.3,48.2c0,.2-.2.4-.4.4s-.4-.2-.4-.4.2-.4.4-.4.4.2.4.4ZM41.5,49c-.1,0-.2,0-.3.1,0,0,0,0,0-.1,0-.3-.2-.5-.5-.5s-.5.2-.5.5.2.5.5.5.2,0,.3,0c0,0,0,.1,0,.2,0,.3.2.5.5.5s.5-.2.5-.5-.2-.5-.5-.5h0ZM40.6,50.2c0-.3-.3-.5-.6-.5s-.1,0-.2,0c0,0,.1-.2.1-.4,0-.3-.2-.5-.5-.5s-.5.2-.5.5.2.5.5.5,0,0,.1,0c0,.1-.2.2-.2.4,0,.3.2.5.4.5,0,0,0,0,0,0,0,.3.3.6.6.6s.6-.3.6-.6-.2-.5-.5-.6c0,0,0,0,0,0ZM39.2,50.7c0,0,0-.1,0-.2,0-.3-.3-.6-.6-.6,0-.1.1-.2.1-.4,0-.3-.2-.5-.5-.6.1-.1.2-.2.2-.4s-.1-.4-.3-.5c.3,0,.5-.2.5-.5s-.2-.5-.5-.5-.5.2-.5.5.1.4.3.4c-.3,0-.5.2-.5.6s.2.5.4.5c-.1.1-.2.3-.2.5,0,.3.2.5.5.6,0,.1-.2.2-.2.4,0,.3.2.5.5.6,0,0,0,.2,0,.3,0,.4.3.7.7.7s.7-.3.7-.7-.3-.7-.6-.7c0,0,0,0,0,0ZM31.9,46.3c0,.3-.1.5-.4.6,0,0,0,0,.1,0,.4,0,.7.3.7.7s0,.2,0,.3c.1-.1.3-.2.4-.2.4,0,.7.3.7.7,0-.3.3-.5.6-.5,0,0-.1-.2-.1-.3,0-.3.3-.6.6-.6s.6.3.6.6-.2.5-.5.6c0,.1.2.3.2.4s0,.3-.2.5c.1.1.2.3.2.5,0-.2,0-.3.2-.4-.1-.1-.2-.3-.2-.5,0-.3.3-.6.6-.6,0,0-.1-.2-.1-.4,0-.2.1-.4.3-.5-.2,0-.4-.2-.4-.5s.2-.5.5-.5.5.2.5.5,0,.3-.2.4c.3,0,.5.3.5.6s-.2.5-.5.6c.1.1.2.3.2.4s0,.3-.2.4c.2.1.3.3.3.6s0,.2-.1.3c.2.1.4.4.4.6s0,.2,0,.2c0,0,.1,0,.2.1,0-.1-.1-.2-.1-.4s0-.3.1-.4c-.2,0-.4-.3-.4-.6s0-.4.2-.5c-.2-.1-.3-.3-.3-.5s.2-.6.5-.6c-.1,0-.2-.2-.2-.4s.1-.4.3-.5c0,0,0,0,0,0-.3,0-.5-.2-.5-.5s.2-.5.5-.5.5.2.5.5-.1.4-.3.5c0,0,0,0,0,0,.3,0,.5.2.5.5s-.2.5-.5.5c.1.1.2.3.2.5s0,.3-.2.4c.2.1.4.3.4.6s0,.2-.1.3c.3,0,.5.3.5.7s0,.2,0,.2c.3,0,.6.4.6.7s-.4.8-.8.8-.7-.3-.8-.6c0,.4-.4.7-.8.7s-.6-.2-.8-.5c-.1.3-.5.5-.8.5s-.6-.2-.8-.5c-.2.3-.5.5-.8.5s-.6-.2-.8-.5c-.2.3-.4.5-.8.5s-.7-.3-.9-.6c-.2.2-.4.3-.7.3-.5,0-.9-.4-.9-.9s0,0,0-.1c0,0-.2,0-.3,0-.5,0-.9-.4-.9-.9s0-.4.2-.5c-.5,0-.8-.4-.8-.9s.2-.7.5-.8c-.3-.1-.5-.4-.5-.8,0-.5.4-.9.8-.9-.2-.2-.2-.4-.2-.6,0-.5.4-.9.9-.9s0,0,0,0c-.2-.2-.3-.4-.3-.6,0-.5.4-.8.8-.8s0,0,0,0c-.2-.2-.3-.4-.3-.6,0-.5.4-.8.8-.8s.1,0,.2,0c-.2-.1-.4-.4-.4-.7,0-.4.4-.8.8-.8s.1,0,.2,0c-.2-.1-.4-.4-.4-.7,0-.4.4-.8.8-.8s.2,0,.3,0c-.3-.1-.4-.4-.4-.7s.4-.8.8-.8.4.1.6.3c0,0,.2,0,.3,0,.2,0,.4.1.6.3,0,0,.2,0,.3,0,.2,0,.4.1.6.3,0,0,.2,0,.3,0,.3,0,.5.2.6.5,0,0,.1,0,.2,0,.3,0,.6.2.6.6s0,.3-.2.4c0,0,.1,0,.2,0,.3,0,.5.2.5.5s0,.3-.1.3c0,0,.2-.1.3-.1.2,0,.4.2.4.4s-.2.4-.4.4-.4-.2-.4-.4,0-.2.1-.3c0,0-.2.1-.3.1-.3,0-.5-.2-.5-.5s0-.3.1-.3c0,0-.1,0-.2,0-.2,0-.4-.2-.5-.4,0,0-.2,0-.3,0-.2,0-.4-.1-.5-.2-.1,0-.2.1-.4.1s-.4,0-.5-.2c-.1,0-.2.1-.4.1s-.4,0-.5-.2c-.1,0-.2.1-.4.1s-.2,0-.3,0c0,0,.1,0,.2.1.1,0,.2,0,.3,0,.2,0,.4,0,.5.2.1,0,.2-.1.4-.1.2,0,.4.1.5.3.1,0,.2-.1.4-.1.3,0,.5.2.6.4,0,0,.1,0,.2,0,.3,0,.6.3.6.6s0,.2-.1.3c0,0,0,0,.1,0,.3,0,.5.2.5.5s0,.2,0,.2c0,0,.1,0,.2,0,.2,0,.4.2.4.4s-.2.4-.4.4-.4-.2-.4-.4,0-.1,0-.2c0,0-.2,0-.3,0-.3,0-.5-.2-.5-.5s0-.2,0-.2c0,0-.1,0-.2,0-.2,0-.4-.1-.5-.3,0,0-.2,0-.3,0-.2,0-.3,0-.5-.2-.1.1-.3.2-.4.2s-.3,0-.5-.2c-.1,0-.3.2-.5.2s-.2,0-.3,0c0,0,.2,0,.2.1.1,0,.3-.2.4-.2s.4,0,.5.2c.1,0,.3-.2.4-.2.3,0,.5.1.6.4,0,0,.2,0,.3,0,.3,0,.6.3.6.6s0,.1,0,.2c0,0,0,0,.1,0,.3,0,.5.2.5.5s0,0,0,.1c0,0,.1,0,.2,0,.2,0,.4.2.4.4s-.2.4-.4.4-.4-.2-.4-.4,0,0,0-.1c0,0-.2,0-.3,0-.3,0-.5-.2-.5-.5s0-.1,0-.2c0,0,0,0-.2,0-.2,0-.4-.1-.5-.3-.1,0-.2.1-.4.1s-.3,0-.4-.2c0,0-.1.1-.2.2,0,0,0,0,.1,0,.2,0,.4.1.5.3,0,0,.2-.1.3-.1.3,0,.6.3.6.6s0,0,0,.1c0,0,0,0,.1,0,.3,0,.5.2.5.5s0,0,0,0c0,0,.1,0,.2,0,.2,0,.4.2.4.4s-.2.4-.4.4-.4-.2-.4-.4,0,0,0,0c0,0-.2,0-.3,0-.3,0-.5-.2-.5-.5s0,0,0,0c0,0-.1,0-.2,0-.2,0-.4,0-.5-.2-.1,0-.3.2-.4.2s-.3,0-.4-.2c0,0,0,0,0,.1.2,0,.4.1.5.3.1,0,.2-.1.4-.1.3,0,.6.3.6.6s0,0,0,0c0,0,0,0,.1,0,.3,0,.5.2.5.5s-.2.5-.5.5-.5-.2-.5-.5c0,0-.1,0-.2,0-.2,0-.3,0-.4-.2-.1.1-.3.2-.5.2s-.3,0-.4-.1c0,0,0,0,0,0,.2,0,.3.1.4.2.1-.1.3-.2.4-.2.3,0,.6.3.6.6s-.3.6-.6.6-.3,0-.4-.2c-.1.1-.3.2-.5.2M31.6,49.7c.1,0,.3.2.3.4,0,0,0,0,0,0-.1-.1-.2-.3-.2-.4,0,0-.1.1-.2.2,0,0,0,0,0,0ZM33.2,49.9c0,0,.1.2.2.3,0,0,0,0,0-.1,0,0-.1-.2-.2-.3,0,0,0,.1,0,.2,0,0,0,0,0,0ZM34.7,49.6c0,.1,0,.2,0,.3.1.1.2.3.3.4,0,0,0-.2.1-.2-.2-.1-.3-.3-.3-.5,0,0,0,0,0,0ZM33,48.9c.1,0,.2.2.2.3,0-.1.1-.2.2-.3,0-.1-.2-.3-.2-.4,0,.2-.1.3-.3.4,0,0,0,0,0,0ZM31.7,48.2c-.2,0-.5-.1-.6-.3,0,0,0,0,0,0,0,.1,0,.2,0,.4,0,0,.2,0,.2,0,.4,0,.7.3.8.7,0,0,.1-.1.2-.2-.1-.1-.2-.3-.2-.5s0-.2,0-.3c-.1.1-.3.2-.4.2ZM31.2,47c-.2,0-.3,0-.4-.2,0,.2-.2.3-.3.4.2,0,.4.2.5.4,0,0,0,0,0,0,0-.3.1-.5.4-.6,0,0,0,0-.1,0h0ZM32.2,42.1c-.2,0-.3,0-.4-.1,0,0,0,0,0,0,.2,0,.3,0,.5.2,0,0,.1-.1.2-.1,0,0,0,0-.1,0,0,0,0,0,0,0ZM31.5,40.7c0,0-.1,0-.2-.1,0,0,0,0,0,0,0,0,.2,0,.2,0ZM32.1,37.8c.1,0,.2,0,.3,0,.1.1.3.2.5.2s.2,0,.3,0c.1.2.3.3.5.3s.2,0,.3,0c.1.2.3.3.5.3s.2,0,.2,0c0,.2.3.4.5.4s.5-.2.5-.5c0,.2.2.3.4.3s.5-.2.5-.5-.2-.5-.5-.5-.4.2-.5.4c0-.2-.3-.4-.5-.4s-.1,0-.2,0c0-.3-.3-.5-.6-.5s-.2,0-.2,0c-.1-.2-.3-.4-.6-.4s-.2,0-.2,0c-.1-.2-.3-.3-.6-.3s-.2,0-.2,0c-.1-.2-.4-.3-.6-.3-.4,0-.8.3-.8.8s.3.8.8.8c0,0,0,0,0,0ZM32.7,36.3c0,0,.2,0,.3,0,.1.2.3.3.6.3s.2,0,.3,0c.1.2.3.3.5.3s.2,0,.3,0c0,.2.3.3.5.3s.1,0,.2,0c0,.3.3.5.5.5s.4-.2.5-.4c0,.2.2.3.4.3s.5-.2.5-.5-.2-.5-.5-.5-.4.1-.4.3c0-.2-.3-.4-.5-.4s0,0-.1,0c0-.3-.3-.6-.6-.6s-.1,0-.2,0c0-.2-.3-.4-.6-.4s-.1,0-.2,0c-.1-.2-.4-.4-.6-.4s-.1,0-.2,0c-.1-.2-.4-.4-.6-.4-.4,0-.8.3-.8.8s.3.8.8.8c0,0,0,0,0,0ZM33.3,34.9c0,0,.1,0,.2,0,.1.2.3.4.6.4s.1,0,.2,0c.1.2.3.4.6.4s.1,0,.2,0c0,.2.3.4.6.4s.1,0,.2,0c0,0,0,0,0,0,0,.3.2.5.5.5s.4-.1.5-.3c0,.2.2.3.4.3s.5-.2.5-.5-.2-.5-.5-.5-.3.1-.4.2c0-.2-.3-.4-.5-.4s0,0-.1,0c0,0,0,0,0,0,0-.3-.3-.6-.6-.6s-.1,0-.2,0c0-.3-.3-.5-.6-.5s0,0-.1,0c0-.3-.4-.5-.7-.5s0,0-.1,0c-.1-.3-.4-.4-.7-.4s-.8.3-.8.8.3.8.8.8c0,0,0,0,0,0ZM33.9,33.4s0,0,.1,0c.1.2.3.4.6.4s.1,0,.2,0c0,.3.3.4.6.4s.1,0,.2,0c0,.3.3.5.6.5s.1,0,.2,0c0,0,0,0,0,0,0,.3.2.5.5.5s.3,0,.4-.2c0,.2.2.3.5.3s.5-.2.5-.5-.2-.5-.5-.5-.3,0-.4.2c0-.2-.3-.4-.5-.4s0,0-.1,0c0,0,0,0,0-.1,0-.3-.3-.6-.6-.6s0,0-.1,0c0-.3-.3-.6-.6-.6s0,0,0,0c0-.3-.3-.5-.7-.5s0,0,0,0c0-.3-.4-.5-.7-.5s-.7.3-.7.7.3.7.7.7c0,0,0,0,0,0ZM34.6,31.9s0,0,0,0c0,.3.3.5.6.5s0,0,.1,0c0,.3.3.5.6.5s0,0,.1,0c0,.3.3.5.6.5s0,0,.1,0c0,0,0,.1,0,.2,0,.3.2.5.5.5s.4-.1.5-.3c0,0,0,0,0,0,0,.3.2.5.5.5s.5-.2.5-.5-.2-.5-.5-.5-.4.1-.4.3c0,0,0,0,0,0,0-.3-.2-.5-.5-.5s0,0-.1,0c0,0,0-.1,0-.2,0-.3-.3-.6-.6-.6s0,0,0,0c0,0,0,0,0,0,0-.3-.3-.6-.6-.6s0,0,0,0c0-.3-.3-.6-.7-.6s0,0,0,0c0-.3-.4-.6-.7-.6s-.7.3-.7.7.3.7.7.7c0,0,0,0,0,0ZM35.2,30.5s0,0,0,0c0,.3.3.6.7.6s0,0,.1,0c0,.3.3.6.6.6s.1,0,.2,0c0,0,0,0,0,.1,0,.3.3.6.6.6s.2,0,.3,0c0,0-.1.2-.1.3,0,.3.2.5.5.5s.5-.2.5-.5-.2-.5-.5-.5-.2,0-.2,0c0-.1.1-.2.1-.4,0-.3-.3-.6-.6-.6s-.1,0-.2,0c0,0,0,0,0-.1,0-.3-.3-.6-.6-.6s0,0,0,0c0,0,0,0,0,0,0-.4-.3-.7-.7-.7s0,0,0,0c0-.4-.3-.7-.7-.7s-.7.3-.7.7.3.7.7.7c0,0,0,0,0,0ZM36.1,29.2s0,0,.1,0c0,0,0,0,0,0,0,.4.3.7.7.7s.1,0,.2,0c0,0,0,.1,0,.2,0,.3.3.6.6.6s.3,0,.4-.1c0,.1-.2.2-.2.4,0,.3.3.6.6.6s.6-.3.6-.6-.3-.6-.6-.6-.2,0-.3.1c.1-.1.2-.3.2-.4,0-.3-.3-.6-.6-.6s-.1,0-.2,0c0,0,0-.1,0-.2,0-.4-.3-.7-.7-.7s0,0-.1,0c0,0,0,0,0,0,0-.4-.3-.7-.7-.7s-.7.3-.7.7.3.7.7.7h0s0,0,0,0ZM37.3,28.2c0,0,.2,0,.2,0,0,0,0,.2,0,.3,0,.4.3.7.7.7s.7-.3.7-.7-.3-.7-.7-.7-.1,0-.2,0c0,0,0-.2,0-.3,0-.4-.3-.7-.7-.7s-.7.3-.7.7.3.7.7.7h0ZM38.7,27.6c.4,0,.7-.3.7-.7s-.3-.7-.7-.7-.7.3-.7.7.3.7.7.7ZM40.3,27.4c.4,0,.7-.3.7-.7s-.3-.7-.7-.7-.7.3-.7.7.3.7.7.7ZM41.8,27.6c.4,0,.7-.3.7-.7s-.3-.7-.7-.7-.7.3-.7.7.3.7.7.7ZM43.8,28.9c0,0-.1,0-.2,0-.4,0-.6.3-.6.6s0,.2,0,.3c0,0,0,0-.1,0-.4,0-.7.3-.7.7s0,.3.1.4c0,0,0,0-.1,0-.4,0-.6.3-.6.6s0,.3.2.4c0,0-.1,0-.2,0-.3,0-.6.3-.6.6s.3.6.6.6.6-.3.6-.6,0-.3-.2-.4c0,0,.1,0,.2,0,.4,0,.6-.3.6-.6s0-.3-.1-.4c0,0,0,0,.1,0,.4,0,.7-.3.7-.7s0-.2,0-.3c0,0,0,0,.1,0,.4,0,.6-.3.6-.6s0-.1,0-.2c0,0,.1,0,.2,0,.3,0,.6-.3.6-.6s-.3-.6-.6-.6-.6.3-.6.6,0,.1,0,.2h0s0,0,0,0ZM50.2,43.1c0,.3.2.5.5.5s.5-.2.5-.5-.2-.5-.5-.5-.5.2-.5.5ZM50.9,44.6c0,.3.2.5.5.5s.5-.2.5-.5-.2-.5-.5-.5-.5.2-.5.5ZM51.5,46c0,.3.2.5.5.5s.5-.2.5-.5-.2-.5-.5-.5-.5.2-.5.5ZM52.1,47.5c0,.2.2.4.4.4s.4-.2.4-.4-.2-.4-.4-.4-.4.2-.4.4ZM52.6,48.6c-.2,0-.4.2-.4.4s.2.4.4.4.4-.2.4-.4-.2-.4-.4-.4ZM51.9,50.1c-.2,0-.4.2-.4.4s.2.4.4.4.4-.2.4-.4-.2-.4-.4-.4ZM50.8,51.2c-.2,0-.4.2-.4.4s.2.4.4.4.4-.2.4-.4-.2-.4-.4-.4ZM49.6,51.5c-.3,0-.5.2-.5.5s.2.5.5.5.5-.2.5-.5-.2-.5-.5-.5h0ZM38.9,28c0,.4.3.7.7.7s.7-.3.7-.7-.3-.7-.7-.7-.7.3-.7.7ZM40.4,28.1c0,.4.3.7.7.7s.7-.3.7-.7-.3-.7-.7-.7-.7.3-.7.7ZM42.4,28c-.4,0-.7.3-.7.7s0,.3.2.4c0,0-.2,0-.3,0-.4,0-.6.3-.6.6s.3.6.6.6.6-.3.6-.6,0-.3-.2-.4c0,0,.2,0,.3,0,.4,0,.7-.3.7-.7s0-.3-.1-.4c0,0,.2,0,.3,0,.4,0,.6-.3.6-.6s-.3-.6-.6-.6-.6.3-.6.6,0,.2.1.3c0,0-.2,0-.3,0,0,0,0,0,0,0ZM50.2,44c-.3,0-.5.2-.5.5s.2.5.5.5.5-.2.5-.5-.2-.5-.5-.5ZM51.3,45.9c0-.3-.2-.5-.5-.5s-.5.2-.5.5.2.5.5.5.5-.2.5-.5ZM51.9,47.3c0-.3-.2-.5-.5-.5s-.5.2-.5.5.2.5.5.5.5-.2.5-.5ZM51.8,49.2c.2,0,.4-.2.4-.4s-.2-.4-.4-.4-.4.2-.4.4.2.4.4.4ZM39.6,29.4c0-.4-.3-.6-.6-.6s-.6.3-.6.6.3.6.6.6.6-.3.6-.6ZM40.3,28.7c-.4,0-.6.3-.6.6s.3.6.6.6.6-.3.6-.6-.3-.6-.6-.6ZM49.2,45.9c0,.3.2.5.5.5s.5-.2.5-.5-.2-.5-.5-.5-.5.2-.5.5ZM49.8,47.2c0,.3.2.5.5.5s.5-.2.5-.5-.2-.5-.5-.5-.5.2-.5.5ZM51.2,48.5c0-.2-.2-.4-.4-.4s-.4.2-.4.4.2.4.4.4.4-.2.4-.4ZM51.2,49.5c-.2,0-.4.2-.4.4s.2.4.4.4.4-.2.4-.4-.2-.4-.4-.4ZM40.5,48.6c.2,0,.5-.2.5-.5s-.2-.5-.5-.5-.5.2-.5.5.2.5.5.5ZM39.4,48.7c.3,0,.5-.2.5-.5s-.2-.5-.5-.5-.5.2-.5.5.2.5.5.5ZM39.8,31.2c.3,0,.6-.3.6-.6s-.3-.6-.6-.6-.6.3-.6.6.3.6.6.6ZM41.7,30.8c0-.3-.3-.6-.6-.6s-.6.3-.6.6.3.6.6.6.6-.3.6-.6ZM48.7,45.4c-.3,0-.5.2-.5.5s.2.5.5.5.5-.2.5-.5-.2-.5-.5-.5ZM48.7,47.1c0,.3.2.5.5.5s.5-.2.5-.5-.2-.5-.5-.5-.5.2-.5.5ZM50.2,48.3c0-.2-.2-.5-.5-.5s-.5.2-.5.5.2.5.5.5.5-.2.5-.5ZM50.3,50c.2,0,.4-.2.4-.4s-.2-.4-.4-.4-.4.2-.4.4.2.4.4.4ZM50.8,50.8c0-.2-.2-.4-.4-.4s-.4.2-.4.4.2.4.4.4.4-.2.4-.4ZM40.3,47.2c0-.3-.2-.5-.5-.5s-.5.2-.5.5.2.5.5.5.5-.2.5-.5ZM33.3,47.8c.3,0,.6-.3.6-.6s-.3-.6-.6-.6-.6.3-.6.6.3.6.6.6ZM33.1,46.3c0-.3-.3-.6-.6-.6s-.6.3-.6.6.3.6.6.6.6-.3.6-.6ZM38.6,32c0,.3.3.6.6.6s.6-.3.6-.6-.3-.6-.6-.6-.6.3-.6.6ZM39.8,31.9c0,.3.3.6.6.6s.6-.3.6-.6-.3-.6-.6-.6-.6.3-.6.6ZM47.7,47.2c0,.3.2.5.5.5s.5-.2.5-.5-.2-.5-.5-.5-.5.2-.5.5ZM49.1,48.3c0-.3-.2-.5-.5-.5s-.5.2-.5.5.2.5.5.5.5-.2.5-.5ZM49.4,49c-.2,0-.4.2-.4.4s.2.4.4.4.4-.2.4-.4-.2-.4-.4-.4ZM49.5,50.1c-.2,0-.4.2-.4.4s.2.4.4.4.4-.2.4-.4-.2-.4-.4-.4ZM41.4,47.4c0-.2-.2-.4-.4-.4s-.4.2-.4.4.2.4.4.4.4-.2.4-.4ZM40.1,46.5c0,.2.2.4.4.4s.4-.2.4-.4-.2-.4-.4-.4-.4.2-.4.4ZM39,47c.3,0,.5-.2.5-.5s-.2-.5-.5-.5-.5.2-.5.5.2.5.5.5ZM37.8,47c.3,0,.5-.2.5-.5s-.2-.5-.5-.5-.5.2-.5.5.2.5.5.5ZM34.4,46.9c.3,0,.5-.2.5-.5s-.2-.5-.5-.5-.5.2-.5.5.2.5.5.5ZM34.1,45.6c0-.3-.2-.5-.5-.5s-.5.2-.5.5.2.5.5.5.5-.2.5-.5ZM36.4,39.1c0-.3-.2-.5-.5-.5s-.5.2-.5.5.2.5.5.5.5-.2.5-.5ZM39.3,33.8c.3,0,.5-.2.5-.5s-.2-.5-.5-.5-.5.2-.5.5.2.5.5.5ZM40.4,32.7c-.3,0-.6.2-.6.6s.2.6.6.6.6-.2.6-.6-.2-.6-.6-.6ZM47.3,47.1c-.3,0-.5.2-.5.5s.2.5.5.5.5-.2.5-.5-.2-.5-.5-.5ZM47.7,49.1c.3,0,.5-.2.5-.5s-.2-.5-.5-.5-.5.2-.5.5.2.5.5.5ZM48.9,49.7c0-.2-.2-.4-.4-.4s-.4.2-.4.4.2.4.4.4.4-.2.4-.4ZM48.6,50.5c-.2,0-.4.2-.4.4s.2.4.4.4.4-.2.4-.4-.2-.4-.4-.4ZM39.8,45.4c-.2,0-.4.2-.4.4s.2.4.4.4.4-.2.4-.4-.2-.4-.4-.4ZM38.8,46c.2,0,.4-.2.4-.4s-.2-.4-.4-.4-.4.2-.4.4.2.4.4.4ZM37.7,46c.2,0,.4-.2.4-.4s-.2-.4-.4-.4-.4.2-.4.4.2.4.4.4ZM36.6,46c.2,0,.4-.2.4-.4s-.2-.4-.4-.4-.4.2-.4.4.2.4.4.4ZM35.6,46c.2,0,.4-.2.4-.4s-.2-.4-.4-.4-.4.2-.4.4.2.4.4.4ZM35.2,44.9c0-.2-.2-.4-.4-.4s-.4.2-.4.4.2.4.4.4.4-.2.4-.4ZM36.5,40.3c.2,0,.4-.2.4-.4s-.2-.4-.4-.4-.4.2-.4.4.2.4.4.4ZM36.5,38.9c0,.2.2.4.4.4s.4-.2.4-.4-.2-.4-.4-.4-.4.2-.4.4ZM37,37.9c0,.2.2.4.4.4s.4-.2.4-.4-.2-.4-.4-.4-.4.2-.4.4ZM37.4,36.9c0,.2.2.4.4.4s.4-.2.4-.4-.2-.4-.4-.4-.4.2-.4.4ZM37.8,35.9c0,.2.2.4.4.4s.4-.2.4-.4-.2-.4-.4-.4-.4.2-.4.4ZM38.3,35c0,.2.2.4.4.4s.4-.2.4-.4-.2-.4-.4-.4-.4.2-.4.4ZM40.2,34.5c0-.3-.2-.5-.5-.5s-.5.2-.5.5.2.5.5.5.5-.2.5-.5ZM41.2,34.7c0-.3-.2-.5-.5-.5s-.5.2-.5.5.2.5.5.5.5-.2.5-.5ZM47.3,50.4c0,.2.2.4.4.4s.4-.2.4-.4-.2-.4-.4-.4-.4.2-.4.4ZM41.7,47.4c.2,0,.4-.2.4-.4s-.2-.4-.4-.4-.4.2-.4.4.2.4.4.4ZM41.3,45.8c-.2,0-.3.2-.3.3s.2.3.3.3.3-.2.3-.3-.2-.3-.3-.3ZM40.6,45c-.2,0-.3.1-.3.3s.1.3.3.3.3-.1.3-.3-.2-.3-.3-.3ZM39.8,45.2c.2,0,.3-.1.3-.3s-.1-.3-.3-.3-.3.1-.3.3.1.3.3.3ZM38.8,44.9c.2,0,.3-.1.3-.3s-.1-.3-.3-.3-.3.1-.3.3.1.3.3.3ZM37.5,44.6c0,.2.1.3.3.3s.3-.1.3-.3-.1-.3-.3-.3-.3.1-.3.3ZM36.8,44.2c-.2,0-.3.1-.3.3s.1.3.3.3.3-.1.3-.3-.1-.3-.3-.3ZM36.3,44.2c0-.2-.1-.3-.3-.3s-.3.1-.3.3.1.3.3.3.3-.1.3-.3ZM35.7,43.2c0,.2.1.3.3.3s.3-.1.3-.3-.1-.3-.3-.3-.3.1-.3.3ZM36.7,42.3c0-.2-.1-.3-.3-.3s-.3.1-.3.3.1.3.3.3.3-.1.3-.3ZM36.8,41.1c-.2,0-.3.2-.3.3s.2.3.3.3.3-.2.3-.3-.2-.3-.3-.3ZM37.6,40.5c0-.2-.2-.3-.3-.3s-.3.2-.3.3.2.3.3.3.3-.2.3-.3ZM37.6,39.2c-.2,0-.4.2-.4.4s.2.4.4.4.4-.2.4-.4-.2-.4-.4-.4ZM38,38.3c-.2,0-.4.2-.4.4s.2.4.4.4.4-.2.4-.4-.2-.4-.4-.4ZM38.8,37.7c0-.2-.2-.4-.4-.4s-.4.2-.4.4.2.4.4.4.4-.2.4-.4ZM38.8,36.4c-.2,0-.4.2-.4.4s.2.4.4.4.4-.2.4-.4-.2-.4-.4-.4ZM39.7,35.9c0-.2-.2-.4-.4-.4s-.4.2-.4.4.2.4.4.4.4-.2.4-.4ZM40.7,35.9c0-.2-.2-.4-.4-.4s-.4.2-.4.4.2.4.4.4.4-.2.4-.4ZM47.8,51.3c0,.3-.2.5-.5.5s-.5-.2-.5-.5,0-.1,0-.2c0,0-.2,0-.3,0-.3,0-.6-.3-.6-.6s0-.2,0-.3c0,0,0,0,0,0-.3,0-.6-.3-.6-.6s0-.2.1-.3c-.3,0-.5-.3-.5-.6s0-.2,0-.3c-.3,0-.5-.3-.5-.6s0-.2,0-.3c-.3,0-.5-.3-.5-.7s0-.2,0-.3c-.3-.1-.4-.4-.4-.7s0-.2,0-.3c-.3-.1-.4-.4-.4-.7s0-.2,0-.3c-.3-.1-.4-.4-.4-.7s0-.2,0-.3c-.3-.1-.4-.4-.4-.7s0-.2,0-.2c-.3-.1-.4-.4-.4-.7s0-.2,0-.3c-.2-.1-.4-.4-.4-.7s0-.2,0-.3c-.2-.1-.4-.4-.4-.6s0-.2,0-.3c-.2,0-.4-.3-.4-.6s0-.3.1-.4c-.3,0-.5-.3-.5-.6s0-.3.2-.4c-.3,0-.5-.2-.5-.5s.2-.5.5-.5.3.1.4.3c0,0,0-.1.1-.2-.2,0-.4-.2-.5-.4,0,.2-.2.4-.4.4s-.5-.2-.5-.5.2-.5.5-.5.3.1.4.3c0-.2.1-.3.2-.4,0,0,0,0,0,0-.3,0-.5-.2-.5-.5s.2-.5.5-.5.1,0,.2,0c0,0,0-.2,0-.3,0-.2,0-.3.2-.4,0,0,0,0-.1,0-.3,0-.6-.3-.6-.6s.3-.6.6-.6.2,0,.3.1c0,0,0,0,0,0,0-.4.3-.6.6-.6s0,0,0,0c0,0,0-.2,0-.3,0-.4.3-.7.7-.7s0,0,0,0c0,0,0-.2,0-.2,0-.4.3-.7.7-.7s0,0,.1,0c0,0,0,0,0-.1,0-.4.3-.6.6-.6s.1,0,.2,0c0,0,0,0,0,0,0-.3.3-.6.6-.6s.6.3.6.6-.3.6-.6.6,0,0-.1,0c0,0,0,0,0,0,0,.4-.3.6-.6.6s0,0,0,0c0,0,0,0,0,.1,0,.4-.3.7-.7.7s0,0,0,0c0,0,0,.2,0,.2s0,.1,0,.2c.1-.2.3-.4.6-.4s0,0,.1,0c0,0,0,0,0,0,0-.4.3-.6.6-.6s.1,0,.2,0c0-.3.3-.6.6-.6s.6.3.6.6-.3.6-.6.6-.1,0-.2,0c0,0,0,0,0,0,0,.4-.3.6-.6.6s0,0-.1,0c0,0,0,0,0,0,0,.4-.3.7-.7.7s0,0,0,0c0,0,0,.1,0,.2,0,.3-.2.5-.4.6,0,0,.1,0,.2,0s0,0,0,0c0,0,0,0,0,0,0-.4.3-.7.7-.7s.1,0,.2,0c0-.3.3-.6.6-.6s.2,0,.2,0c0-.3.3-.5.6-.5s.6.3.6.6-.3.6-.6.6-.1,0-.2,0c0,.3-.3.6-.6.6s0,0-.1,0c0,0,0,0,0,0,0,.4-.3.7-.7.7s0,0,0,0c0,0,0,0,0,0,0,.2-.1.5-.3.6,0,0,.1,0,.2,0s0,0,.1,0c0-.4.3-.6.6-.6s.1,0,.2,0c0-.3.3-.5.6-.5s.2,0,.3,0c0-.3.3-.5.6-.5s.6.3.6.6-.3.6-.6.6-.2,0-.2,0c0,.3-.3.6-.6.6s-.1,0-.2,0c0,.3-.3.6-.6.6s0,0,0,0c0,0,0,0,0,0,0,.3-.2.5-.4.6,0,0,.1,0,.2,0s.1,0,.2,0c0-.3.3-.6.6-.6s.2,0,.3,0c0-.3.3-.5.6-.5s.2,0,.3.1c0-.3.3-.5.6-.5s.6.3.6.6-.3.6-.6.6-.2,0-.3,0c0,.3-.3.5-.6.5s-.2,0-.2,0c0,.3-.3.5-.6.5s0,0-.1,0c0,.4-.3.6-.7.6s0,0,0,0c0,.2,0,.3-.2.4,0,0,.1,0,.2,0,0-.3.3-.5.6-.5s.2,0,.2,0c0-.3.3-.5.6-.5s.2,0,.3.1c0-.3.3-.5.6-.5s.3,0,.4.2c0-.2.3-.4.5-.4s.6.3.6.6-.3.6-.6.6-.3,0-.4-.1c0,.3-.3.5-.6.5s-.2,0-.3,0c0,.3-.3.5-.6.5s-.1,0-.2,0c0,.3-.3.6-.6.6s0,0-.1,0c0,.2,0,.3-.2.4,0,0,.2,0,.3,0,0-.3.3-.5.6-.5s.2,0,.3,0c0-.3.3-.5.6-.5s.3,0,.4.1c0-.2.3-.4.5-.4s.3,0,.4.2c0-.2.3-.4.5-.4s.5.2.5.5-.2.5-.5.5-.3,0-.4-.2c0,.3-.3.5-.5.5s-.3,0-.3-.1c0,.3-.3.5-.6.5s-.2,0-.3,0c0,.3-.3.5-.6.5s-.1,0-.2,0c0,.2-.1.3-.3.4,0,0,0,0,0,0,.1,0,.2,0,.3,0,0-.3.3-.5.6-.5s.3,0,.4.1c0-.3.3-.4.6-.4s.3,0,.4.2c0-.2.3-.4.5-.4s.4.1.5.3c0-.2.3-.4.5-.4s.5.2.5.5-.2.5-.5.5-.4-.1-.5-.3c0,.3-.3.5-.5.5s-.3,0-.4-.2c0,.2-.3.4-.5.4s-.2,0-.3-.1c0,.3-.3.5-.6.5s-.2,0-.3,0c0,.3-.3.5-.6.5s0,0,0,0c0,0,0,.1,0,.2.1-.2.3-.3.5-.3s.3,0,.4.1c0-.2.3-.4.5-.4s.3,0,.4.2c0-.2.3-.4.5-.4s.4.1.5.3c0-.2.3-.4.5-.4s.4.2.5.4c0-.3.2-.5.5-.5s.5.2.5.5-.2.5-.5.5-.4-.2-.5-.4c0,.3-.3.5-.5.5s-.4-.1-.5-.3c0,.3-.3.4-.5.4s-.3,0-.4-.2c0,.3-.3.4-.6.4s-.2,0-.3-.1c0,.3-.3.5-.6.5s0,0-.1,0c0,0,0,.1,0,.2,0,.2-.1.4-.3.5,0,0,0,0,0,0,0,0,.2,0,.2,0,0,0,0-.1,0-.2,0-.3.3-.6.6-.6s.3,0,.4.2c0-.2.3-.4.5-.4s.4.1.5.3c0-.2.3-.4.5-.4s.5.2.5.4c0-.3.2-.5.5-.5s.5.2.5.5-.2.5-.5.5-.4-.2-.5-.4c0,.3-.2.5-.5.5s-.3-.1-.4-.3c0,.3-.3.5-.5.5s-.3,0-.4-.2c0,.3-.3.5-.5.5s-.1,0-.2,0c0,0,0,.1,0,.2,0,.3-.3.6-.6.6s-.3,0-.4-.1c0,0,0,.1-.1.2.2,0,.3.1.4.3,0-.2.3-.4.5-.4s.2,0,.3,0c0,0,0-.1,0-.2,0-.3.2-.5.5-.5s.4.1.5.3c0-.3.2-.5.5-.5s.4.2.5.4c0-.3.2-.5.5-.5s.5.2.5.5-.2.5-.5.5-.4-.2-.5-.4c0,.3-.2.5-.5.5s-.4-.1-.5-.3c0,.3-.3.5-.5.5s-.2,0-.3,0c0,0,0,.1,0,.2,0,.3-.2.6-.6.6s-.3,0-.4-.2c0,0,0,.2-.2.2.3,0,.5.2.5.4,0-.2.2-.4.5-.4s.3,0,.4.1c0,0,0-.1,0-.2,0-.3.2-.5.5-.5s.5.2.5.5-.2.5-.5.5-.3,0-.3-.1c0,0,0,.1,0,.2,0,.3-.2.5-.5.5s-.4-.2-.5-.4c0,.2-.1.3-.3.4,0,0,.1,0,.2,0,.3,0,.5.2.5.5s-.2.5-.5.5-.2,0-.3,0c0,0,0,.1,0,.2.1,0,.2.1.3.2,0-.2.2-.4.5-.4s.5.2.5.5-.2.5-.5.5-.3,0-.4-.1c0,0,0,.2-.1.2.2,0,.3.2.4.3,0-.2.2-.4.5-.4s.5.2.5.5-.2.5-.5.5-.3-.1-.4-.3c0,0,0,.2,0,.3,0,0,0,0,0,0,.3,0,.6.3.6.6s0,.2,0,.2c0,0,.2,0,.2,0,.3,0,.5.2.5.5h0ZM42.8,33.8s0,0,.1,0,0,0,0,0c0,0,0-.1,0-.2,0,0-.1.1-.2.2h0ZM45.2,41.6s0,0,0,0h0s0,0,0,0ZM46,47.1c0,0-.1,0-.2,0s-.2,0-.2,0c0,0,0,.1,0,.2,0,0,.1,0,.2.1,0-.1.1-.2.3-.3h0ZM45.4,46.2s0,0,0,0c0,0-.1,0-.2,0,0,0,0,.1,0,.2,0,0,0,0,.1,0,0,0,0-.1.1-.2h0ZM45.6,43.9s0,0,0,0c-.1,0-.2,0-.3,0,0,0,0,0,0,.1.1,0,.2,0,.3.2,0,0,.1-.1.2-.2h0ZM44.6,36.8s0,0,0,0c0,0,0,0,0,0,0,.2,0,.3-.2.5,0,0,0,0,0,0,0-.2.2-.4.3-.5,0,0-.1,0-.2,0h0ZM44.1,35.5s0,0,0,0c0,0,0,0,0,0s0,0,0,.1c0,0,.1-.2.2-.2,0,0-.1,0-.2,0ZM43.8,34.3c0,0-.1,0-.2,0s0,0,0,0c0,0,0,.1,0,.2s0,0,0,0c0,0,.1-.2.2-.2,0,0,0,0,0,0ZM43.1,33.1s0,0,0,0c0,0,0,.1,0,.2.1-.2.3-.3.6-.3s0,0,0,0c0,0,0,0,0-.2s0-.1,0-.2c-.1.2-.3.4-.6.4ZM48.3,51.3c-.2,0-.4.2-.4.4s.2.4.4.4.4-.2.4-.4-.2-.4-.4-.4Z"></path>
      </g>
    </g>
  </g>
</svg>