<svg xmlns="http://www.w3.org/2000/svg" width="80" height="80" viewBox="0 0 80 80" fill="none">
  <path d="M0 38.4C0 24.9587 0 18.2381 2.61584 13.1042C4.9168 8.58834 8.58834 4.9168 13.1042 2.61584C18.2381 0 24.9587 0 38.4 0H41.6C55.0413 0 61.7619 0 66.8958 2.61584C71.4117 4.9168 75.0832 8.58834 77.3842 13.1042C80 18.2381 80 24.9587 80 38.4V41.6C80 55.0413 80 61.7619 77.3842 66.8958C75.0832 71.4117 71.4117 75.0832 66.8958 77.3842C61.7619 80 55.0413 80 41.6 80H38.4C24.9587 80 18.2381 80 13.1042 77.3842C8.58834 75.0832 4.9168 71.4117 2.61584 66.8958C0 61.7619 0 55.0413 0 41.6V38.4Z" fill="#191919"></path>
  <g clip-path="url(#clip0_1191_2604)">
    <mask id="mask0_1191_2604" style="mask-type:luminance" maskUnits="userSpaceOnUse" x="15" y="16" width="50" height="48">
      <path d="M64.3308 16H15.1V64H64.3308V16Z" fill="white"></path>
    </mask>
    <g mask="url(#mask0_1191_2604)">
      <path d="M55.6128 16H23.8179C19.0032 16 15.1 19.9032 15.1 24.7179V55.2821C15.1 60.0968 19.0032 64 23.8179 64H55.6128C60.4276 64 64.3308 60.0968 64.3308 55.2821V24.7179C64.3308 19.9032 60.4276 16 55.6128 16Z" fill="#00005B"></path>
      <path d="M34.8774 44.7179H27.2484L25.6962 49.5489C25.6751 49.6369 25.624 49.7147 25.5516 49.7689C25.4793 49.8232 25.3902 49.8505 25.2999 49.8461H21.4359C21.2156 49.8461 21.1385 49.7251 21.2048 49.4829L27.8099 30.5387C27.8759 30.3406 27.942 30.1469 28.008 29.8935C28.0946 29.4529 28.1388 29.005 28.1402 28.556C28.1357 28.5246 28.1386 28.4926 28.1486 28.4625C28.1586 28.4324 28.1756 28.4051 28.198 28.3826C28.2204 28.3602 28.2477 28.3433 28.2779 28.3333C28.3079 28.3232 28.34 28.3203 28.3713 28.3248H33.6225C33.7762 28.3248 33.8643 28.3798 33.8867 28.49L41.3835 49.5159C41.4495 49.7362 41.3834 49.8463 41.1854 49.8461H36.892C36.8183 49.8544 36.744 49.8354 36.6833 49.7929C36.6225 49.7503 36.5793 49.6871 36.5618 49.615L34.8774 44.7179ZM28.4375 40.6446H33.6555C33.5234 40.2044 33.3692 39.709 33.1931 39.1584C33.0166 38.6083 32.8295 38.0194 32.6316 37.3915C32.4335 36.7641 32.2354 36.1366 32.0372 35.5091C31.8391 34.8816 31.6574 34.2761 31.4922 33.6926C31.3272 33.1096 31.1786 32.5757 31.0464 32.0909H31.0134C30.8276 32.9829 30.5961 33.8647 30.3198 34.733C30.0113 35.7238 29.6975 36.7366 29.3786 37.7713C29.0592 38.8065 28.7455 39.7642 28.4375 40.6446Z" fill="#9999FF"></path>
      <path d="M53.5371 42.8377H47.0311C47.1108 43.4815 47.3246 44.1013 47.6587 44.6573C48.028 45.2079 48.5503 45.6384 49.1612 45.8958C49.9892 46.2541 50.8848 46.4296 51.7868 46.4104C52.5025 46.3967 53.2154 46.3184 53.917 46.1765C54.5444 46.0918 55.1594 45.9315 55.7484 45.6991C55.8583 45.6114 55.9136 45.6661 55.9136 45.8642V49.0017C55.919 49.0871 55.9019 49.1726 55.864 49.2494C55.8262 49.3094 55.7754 49.3602 55.7153 49.3979C55.062 49.6874 54.3744 49.8922 53.6693 50.0075C52.7112 50.1874 51.7376 50.2704 50.763 50.2552C49.1994 50.2552 47.8893 50.013 46.8329 49.5286C45.8342 49.0886 44.9521 48.4214 44.2569 47.5801C43.6076 46.7874 43.1246 45.872 42.8368 44.8885C42.5518 43.9178 42.4072 42.9113 42.4075 41.8997C42.4045 40.7951 42.5773 39.697 42.9194 38.6467C43.249 37.6222 43.7701 36.6695 44.4551 35.8395C45.1308 35.0191 45.9757 34.3545 46.932 33.8909C47.9006 33.4178 49.0457 33.248 50.3667 33.248C51.4622 33.2203 52.5504 33.4346 53.5537 33.8755C54.3973 34.2353 55.14 34.7962 55.7168 35.5092C56.2579 36.2074 56.6716 36.9956 56.9388 37.8376C57.199 38.6489 57.3327 39.4955 57.3351 40.3475C57.3351 40.832 57.3186 41.2724 57.2855 41.6685C57.2526 42.0648 57.2251 42.351 57.203 42.5272C57.1945 42.6 57.1594 42.6671 57.1046 42.7158C57.0498 42.7645 56.9791 42.7914 56.9057 42.7914C56.7736 42.7914 56.5479 42.8079 56.2287 42.841C55.9093 42.874 55.513 42.896 55.0398 42.907C54.5661 42.9183 54.0656 42.8377 53.5371 42.8377ZM47.0311 39.8292H51.3575C51.8859 39.8292 52.2767 39.8237 52.5298 39.8127C52.6993 39.7957 52.8628 39.7415 53.0088 39.6539V39.4558C53.0021 39.1975 52.9576 38.9416 52.8767 38.6962C52.6985 38.1328 52.3403 37.6434 51.857 37.3033C51.3737 36.9632 50.7922 36.7912 50.2016 36.8137C49.6459 36.7801 49.0923 36.909 48.6085 37.1846C48.1247 37.4603 47.7315 37.8707 47.477 38.3659C47.2507 38.8265 47.1002 39.3206 47.0311 39.8292Z" fill="#9999FF"></path>
    </g>
  </g>
  <defs>
    <clipPath id="clip0_1191_2604">
      <rect width="49.8" height="48" fill="white" transform="translate(15.1 16)"></rect>
    </clipPath>
  </defs>
</svg>