<svg xmlns="http://www.w3.org/2000/svg" id="Layer_1" version="1.1" viewBox="0 0 80 80">
  <defs>
    <style>
      .st0 {
        fill: #fff;
        fill-rule: evenodd;
      }

      .st1 {
        fill: #191919;
      }
    </style>
  </defs>
  <path class="st1" d="M0,38.4c0-13.4,0-20.2,2.6-25.3,2.3-4.5,6-8.2,10.5-10.5C18.2,0,25,0,38.4,0h3.2C55,0,61.8,0,66.9,2.6c4.5,2.3,8.2,6,10.5,10.5,2.6,5.1,2.6,11.9,2.6,25.3v3.2c0,13.4,0,20.2-2.6,25.3-2.3,4.5-6,8.2-10.5,10.5-5.1,2.6-11.9,2.6-25.3,2.6h-3.2c-13.4,0-20.2,0-25.3-2.6-4.5-2.3-8.2-6-10.5-10.5C0,61.8,0,55,0,41.6,0,41.6,0,38.4,0,38.4Z"></path>
  <g>
    <path class="st0" d="M34.7,27.2h-6.5c-2.7,0-4.9,2.2-4.9,4.9v20.5c0,2.7,2.2,4.9,4.9,4.9h20.5c2.7,0,4.9-2.2,4.9-4.9h0v-8.6l2.9-2v10.6c0,4.3-3.5,7.8-7.8,7.8h-20.5c-4.3,0-7.8-3.5-7.8-7.8v-20.5c0-2.1.8-4.1,2.3-5.5,1.5-1.5,3.4-2.3,5.5-2.3h8.2l-1.7,2.9Z"></path>
    <path class="st0" d="M48.9,19.6c.3,0,.5.2.5.4.5,2.4,1.7,4.6,3.4,6.3,1.7,1.7,3.9,2.9,6.3,3.4.3,0,.4.3.4.5,0,.3-.2.5-.4.5-2.4.5-4.6,1.7-6.3,3.4-1.7,1.7-2.9,4-3.4,6.4,0,.2-.3.4-.5.4-.3,0-.5-.2-.5-.4-.5-2.4-1.7-4.6-3.4-6.4-1.7-1.7-4-2.9-6.4-3.4-.2,0-.4-.3-.4-.5,0-.3.2-.5.4-.5,2.4-.5,4.6-1.7,6.4-3.4,1.7-1.7,2.9-3.9,3.4-6.3,0-.3.3-.4.5-.4Z"></path>
  </g>
</svg>