<svg xmlns="http://www.w3.org/2000/svg" width="80" height="80" viewBox="0 0 80 80" fill="none">
  <path d="M0 38.4C0 24.9587 0 18.2381 2.61584 13.1042C4.9168 8.58834 8.58834 4.9168 13.1042 2.61584C18.2381 0 24.9587 0 38.4 0H41.6C55.0413 0 61.7619 0 66.8958 2.61584C71.4117 4.9168 75.0832 8.58834 77.3842 13.1042C80 18.2381 80 24.9587 80 38.4V41.6C80 55.0413 80 61.7619 77.3842 66.8958C75.0832 71.4117 71.4117 75.0832 66.8958 77.3842C61.7619 80 55.0413 80 41.6 80H38.4C24.9587 80 18.2381 80 13.1042 77.3842C8.58834 75.0832 4.9168 71.4117 2.61584 66.8958C0 61.7619 0 55.0413 0 41.6V38.4Z" fill="#191919"></path>
  <g clip-path="url(#clip0_1190_2564)">
    <path d="M25.3279 20C22.4637 20 20.3443 22.5069 20.4392 25.2255C20.5304 27.8373 20.412 31.2202 19.5604 33.9788C18.7063 36.7455 17.2616 38.498 14.902 38.7231V41.2635C17.2616 41.4886 18.7063 43.2412 19.5604 46.008C20.412 48.7667 20.5304 52.1492 20.4392 54.7612C20.3443 57.4794 22.4637 59.9867 25.3283 59.9867H54.6759C57.5402 59.9867 59.659 57.4798 59.5641 54.7612C59.4732 52.1494 59.5914 48.7667 60.443 46.008C61.2977 43.2414 62.7384 41.4884 65.0981 41.2635V38.7231C62.7384 38.498 61.2977 36.7455 60.4432 33.9788C59.5914 31.2206 59.4732 27.8375 59.5641 25.2255C59.659 22.5073 57.5402 20 54.6759 20H25.3275H25.3279ZM48.9334 44.6143C48.9334 48.3578 46.1412 50.628 41.5075 50.628H33.6192C33.3936 50.628 33.1773 50.5383 33.0178 50.3788C32.8583 50.2192 32.7686 50.0029 32.7686 49.7773V30.2094C32.7686 30.0977 32.7906 29.987 32.8333 29.8838C32.8761 29.7805 32.9388 29.6867 33.0178 29.6077C33.0968 29.5287 33.1906 29.466 33.2938 29.4232C33.397 29.3804 33.5077 29.3584 33.6194 29.3584H41.4624C45.3261 29.3584 47.8618 31.4516 47.8618 34.6649C47.8618 36.9204 46.1559 38.9396 43.9828 39.2931V39.411C46.9414 39.7355 48.9334 41.7843 48.9334 44.6143ZM40.6471 32.0555H36.1496V38.4084H39.9379C42.8661 38.4084 44.481 37.2292 44.481 35.1214C44.481 33.1463 43.0922 32.0555 40.6471 32.0555ZM36.1496 40.9292V47.9302H40.8128C43.8614 47.9302 45.4767 46.7069 45.4767 44.4076C45.4767 42.108 43.8165 40.9288 40.6167 40.9288H36.1496V40.9292Z" fill="#7E13F8"></path>
  </g>
  <defs>
    <clipPath id="clip0_1190_2564">
      <rect width="50.1961" height="40" fill="white" transform="translate(14.902 20)"></rect>
    </clipPath>
  </defs>
</svg>