<svg xmlns="http://www.w3.org/2000/svg" xmlns:xlink="http://www.w3.org/1999/xlink" id="Layer_1" version="1.1" viewBox="0 0 80 80">
  <defs>
    <style>
      .st0 {
        fill: none;
      }

      .st1 {
        mask: url(#mask);
      }

      .st2 {
        fill: #fff;
      }

      .st3 {
        fill: #191919;
      }

      .st4 {
        clip-path: url(#clippath);
      }
    </style>
    <clipPath id="clippath">
      <rect class="st0" x="15.1" y="16" width="49.8" height="48"></rect>
    </clipPath>
    <mask id="mask" x="15.1" y="16" width="49.2" height="48" maskUnits="userSpaceOnUse">
      <g id="mask0_1182_2306">
        <path class="st2" d="M64.3,16H15.1v48h49.2V16Z"></path>
      </g>
    </mask>
  </defs>
  <path class="st3" d="M0,38.4c0-13.4,0-20.2,2.6-25.3,2.3-4.5,6-8.2,10.5-10.5C18.2,0,25,0,38.4,0h3.2C55,0,61.8,0,66.9,2.6c4.5,2.3,8.2,6,10.5,10.5,2.6,5.1,2.6,11.9,2.6,25.3v3.2c0,13.4,0,20.2-2.6,25.3-2.3,4.5-6,8.2-10.5,10.5-5.1,2.6-11.9,2.6-25.3,2.6h-3.2c-13.4,0-20.2,0-25.3-2.6-4.5-2.3-8.2-6-10.5-10.5-2.6-5.1-2.6-11.9-2.6-25.3v-3.2Z"></path>
  <g class="st4">
    <g class="st1">
      <path class="st2" d="M55.6,16h-31.8c-4.8,0-8.7,3.9-8.7,8.7v30.6c0,4.8,3.9,8.7,8.7,8.7h31.8c4.8,0,8.7-3.9,8.7-8.7v-30.6c0-4.8-3.9-8.7-8.7-8.7Z"></path>
    </g>
  </g>
  <path d="M24.3,32.2c.2-2.1,2-3.7,4-3.8h17.8c1.3.1,2.5.8,3.2,1.9.3.5.6,1,.7,1.6l5.2-2.6c.1,0,.3,0,.3.1,0,0,0,0,0,0v2.9h0c0,.2-.1.4-.3.5-4.8,2.4-9.6,4.8-14.5,7.2l14.4,7.1c.2,0,.3.2.3.4v3c0,.1-.1.2-.2.2,0,0-.1,0-.1,0-1.7-.9-3.5-1.7-5.2-2.6-.1.4-.3.8-.5,1.2-.6,1.1-1.6,1.9-2.8,2.1-.4,0-.8.1-1.2,0h-16.6c-.4,0-.8,0-1.1,0-1.9-.3-3.4-1.9-3.6-3.8v-2.9c0-.2.2-.4.4-.5,3-1.5,5.9-2.9,8.9-4.4-3-1.5-6-3-9-4.5-.2,0-.3-.3-.3-.5,0-.9,0-1.9,0-2.8h0ZM27.6,32.2c-.2.4,0,.8-.1,1.2,3.3,1.6,6.5,3.2,9.8,4.8,3.2-1.6,6.4-3.2,9.7-4.8,0-.3,0-.6,0-.9,0-.5-.5-.9-1.1-.9h-17.2c-.4,0-.8.2-1,.6h0ZM27.5,46.6c0,.4,0,.8.1,1.2.2.4.6.6,1,.6h17.2s0,0,0,0c.4,0,.7-.2.9-.5.2-.4.1-.8.1-1.3-3.2-1.6-6.5-3.2-9.7-4.8-3.3,1.6-6.5,3.2-9.8,4.8h0Z"></path>
</svg>