<svg xmlns="http://www.w3.org/2000/svg" xmlns:xlink="http://www.w3.org/1999/xlink" id="Layer_1" version="1.1" viewBox="0 0 80 80">
  <defs>
    <style>
      .st0 {
        fill: none;
      }

      .st1 {
        fill: #020518;
      }

      .st2 {
        clip-path: url(#clippath-1);
      }

      .st3 {
        fill: #f4f5f8;
      }

      .st4 {
        fill: url(#Degradado_sin_nombre_5);
      }

      .st5 {
        fill: url(#Degradado_sin_nombre_17);
      }

      .st6 {
        fill: url(#Degradado_sin_nombre_23);
      }

      .st7 {
        fill: #191919;
      }

      .st8 {
        clip-path: url(#clippath);
      }
    </style>
    <radialGradient id="Degradado_sin_nombre_23" data-name="Degradado sin nombre 23" cx="40.9" cy="35.5" fx="40.9" fy="35.5" r="30.9" gradientUnits="userSpaceOnUse">
      <stop offset="0" stop-color="#d4d6e5"></stop>
      <stop offset=".5" stop-color="#ced0e1"></stop>
      <stop offset="1" stop-color="#f3f3f8"></stop>
    </radialGradient>
    <linearGradient id="Degradado_sin_nombre_17" data-name="Degradado sin nombre 17" x1="46.2" y1="28.6" x2="38.9" y2="42.2" gradientUnits="userSpaceOnUse">
      <stop offset="0" stop-color="#fdfdfe"></stop>
      <stop offset=".2" stop-color="#6472eb"></stop>
      <stop offset=".5" stop-color="#2d39a1"></stop>
      <stop offset="1" stop-color="#6070d7"></stop>
    </linearGradient>
    <clipPath id="clippath">
      <path class="st0" d="M32.8,32.3s0,.3-.1.3c0,.3-.2.6-.2.9-.2,1-.3,2.1-.2,3.1.2,2.3,1.2,4.6,2.8,6.3s1.3,1.2,2.1,1.7c2.1,1.2,4.6,1.7,7,1.1.8-.2,1.5-.5,2.2-.8,1.4-.7,2.7-1.5,3.9-2.5s1.1-1,1.5-1.5,0,0,0,0c0,0-6.4,11.5-14,9.8s-10.2-8.4-10.2-8.4c0,0,.4-8.8,5.2-10Z"></path>
    </clipPath>
    <clipPath id="clippath-1">
      <rect class="st0" x="22.6" y="27.3" width="34.1" height="28.5"></rect>
    </clipPath>
    <linearGradient id="Degradado_sin_nombre_5" data-name="Degradado sin nombre 5" x1="28.6" y1="39.1" x2="50.7" y2="39.1" gradientUnits="userSpaceOnUse">
      <stop offset="0" stop-color="#d4d6e5"></stop>
      <stop offset=".5" stop-color="#ced0e1"></stop>
      <stop offset="1" stop-color="#f3f3f8"></stop>
    </linearGradient>
  </defs>
  <path class="st7" d="M0,38.4c0-13.4,0-20.2,2.6-25.3,2.3-4.5,6-8.2,10.5-10.5C18.2,0,25,0,38.4,0h3.2C55,0,61.8,0,66.9,2.6c4.5,2.3,8.2,6,10.5,10.5,2.6,5.1,2.6,11.9,2.6,25.3v3.2c0,13.4,0,20.2-2.6,25.3-2.3,4.5-6,8.2-10.5,10.5-5.1,2.6-11.9,2.6-25.3,2.6h-3.2c-13.4,0-20.2,0-25.3-2.6-4.5-2.3-8.2-6-10.5-10.5-2.6-5.1-2.6-11.9-2.6-25.3v-3.2Z"></path>
  <g>
    <rect class="st6" x="16.3" y="16.3" width="47.3" height="47.3" rx="6.1" ry="6.1"></rect>
    <g>
      <polygon class="st1" points="45.9 28.2 37.4 27.1 30.8 31 28.6 35.9 31.9 43.6 37.8 47.9 45.3 47.9 49.2 44.2 50.7 38.7 50.3 33.4 49.5 31.4 45.9 28.2"></polygon>
      <path class="st1" d="M45,26.9s4.4.8,6.3,6l-1.4.3-5.3-5.5.5-.9Z"></path>
      <path class="st5" d="M45.3,27.9s3.5,1.2,4.9,5.1l-.6.5s-1.5.2-3,4.9c-1.5,4.7-5.8,5.8-9,3.5-3.3-2.4-1.9-7.4.6-8.8s6.6-2.4,7.2-5.2Z"></path>
      <g class="st8">
        <g class="st2">
          <image width="72" height="60" transform="translate(22.6 27.2) scale(.5)"></image>
        </g>
      </g>
      <path class="st3" d="M45.3,27.9s.5-1-.5-1.7-9.7-2.7-15,3.9c-1.4,1.7-2.3,3.8-2.7,5.9s-.3,4,.2,6,1.4,3.7,2.7,5.2c1.5,1.7,3.4,3,5.5,3.8.6.2,1.2.4,1.8.5,2.4.5,4.9.3,7.2-.5s.8-.3,1.2-.5c1.8-.9,3.3-2.1,4.5-3.7s.6-.8.8-1.2c1.9-3,3-7.3,1.1-12.2,0,0-.6-1.3-2.2-.5s-1.5,3.8-1.6,5.5-1.5,8.9-7.5,10.9c-6,2-12.8-2.6-11.9-10,.9-7.4,8.8-8.9,12.6-9.6s3.7-2,3.7-2Z"></path>
      <path class="st4" d="M45.3,27.9s0,1.2-2.6,1.8-13.9,1.4-13.9,11.6,1.7,8,8.5,8.6c6.9.7,10-5.8,10.8-9.8s.9-7.4,2.6-7.3c0,0-.7.2-1,1.2s-.6,2.4-1.1,4.9-1.1,6.4-4.9,9.5c-3.8,3.1-9.8,1.8-12.2-.8s-2.7-4.6-2.7-4.6c0,0-1.1-4,1.2-7.3s5.7-4.7,7.9-5.3,6.3-1,7.4-2.5Z"></path>
    </g>
  </g>
</svg>