<svg xmlns="http://www.w3.org/2000/svg" width="80" height="80" viewBox="0 0 80 80" fill="none">
  <path d="M0 38.4C0 24.9587 0 18.2381 2.61584 13.1042C4.9168 8.58834 8.58834 4.9168 13.1042 2.61584C18.2381 0 24.9587 0 38.4 0H41.6C55.0413 0 61.7619 0 66.8958 2.61584C71.4117 4.9168 75.0832 8.58834 77.3842 13.1042C80 18.2381 80 24.9587 80 38.4V41.6C80 55.0413 80 61.7619 77.3842 66.8958C75.0832 71.4117 71.4117 75.0832 66.8958 77.3842C61.7619 80 55.0413 80 41.6 80H38.4C24.9587 80 18.2381 80 13.1042 77.3842C8.58834 75.0832 4.9168 71.4117 2.61584 66.8958C0 61.7619 0 55.0413 0 41.6V38.4Z" fill="#191919"></path>
  <g clip-path="url(#clip0_1190_2585)">
    <path d="M16 16H56.32C58.3569 16 60.3103 16.8091 61.7506 18.2494C63.1909 19.6897 64 21.6431 64 23.68V56.32C64 58.3569 63.1909 60.3103 61.7506 61.7506C60.3103 63.1909 58.3569 64 56.32 64H23.68C21.6431 64 19.6897 63.1909 18.2494 61.7506C16.8091 60.3103 16 58.3569 16 56.32V16Z" fill="#663399"></path>
    <path d="M55.1939 60.1553C53.6392 60.1553 52.4503 59.7032 51.6179 58.7945C50.7947 57.8811 50.3661 56.5779 50.3277 54.8758H53.6781C53.6973 56.3811 54.2263 57.1356 55.2659 57.1356C55.7959 57.1356 56.1712 56.9676 56.3877 56.6355C56.5994 56.3043 56.7103 55.7748 56.7103 55.0491C56.7103 54.4721 56.5658 53.9912 56.2864 53.6115C55.9074 53.1599 55.4207 52.8109 54.8714 52.5968L53.6296 52.0001C52.5227 51.4712 51.7187 50.8462 51.2229 50.1152C50.7415 49.3889 50.501 48.3699 50.501 47.0672C50.501 45.6099 50.9248 44.4272 51.7667 43.518C52.6331 42.6094 53.8125 42.1577 55.3187 42.1577C56.7731 42.1577 57.8992 42.6046 58.6931 43.494C59.5019 44.3888 59.9253 45.6675 59.9594 47.3408H56.7343C56.7535 46.7936 56.6431 46.2502 56.4117 45.7539C56.2293 45.3891 55.8727 45.2062 55.3432 45.2062C54.4 45.2062 53.9282 45.7683 53.9282 46.8886C53.9282 47.4564 54.0434 47.8985 54.2747 48.235C54.608 48.6073 55.0256 48.8943 55.4925 49.0721L56.6815 49.5963C57.9088 50.1588 58.7944 50.8467 59.3383 51.6785C59.8869 52.5056 60.1567 53.6115 60.1567 54.9963C60.1567 56.6552 59.7232 57.9291 58.8424 58.8185C57.9664 59.708 56.7487 60.1553 55.1944 60.1553H55.1939ZM44.3738 60.1553C42.8186 60.1553 41.6301 59.7032 40.7973 58.7945C39.9741 57.8811 39.5459 56.5779 39.5075 54.8758H42.8575C42.8767 56.3811 43.4061 57.1356 44.4463 57.1356C44.9752 57.1356 45.3506 56.9676 45.5623 56.6355C45.7792 56.3043 45.8848 55.7748 45.8848 55.0491C45.8848 54.4721 45.7456 53.9912 45.4663 53.6115C45.0872 53.1599 44.6006 52.8109 44.0512 52.5968L42.8095 52.0001C41.7021 51.4712 40.8986 50.8462 40.4027 50.1152C39.9213 49.3889 39.6808 48.3699 39.6808 47.0672C39.6808 45.6099 40.1042 44.4272 40.9466 43.518C41.813 42.6094 42.9923 42.1577 44.4986 42.1577C45.9525 42.1577 47.0786 42.6046 47.8682 43.494C48.6866 44.3888 49.1051 45.6675 49.1387 47.3408H45.9141C45.9333 46.7936 45.8229 46.2502 45.5915 45.7539C45.4087 45.3891 45.0525 45.2062 44.5231 45.2062C43.5794 45.2062 43.1075 45.7683 43.1075 46.8886C43.1075 47.4564 43.2232 47.8985 43.4541 48.235C43.7874 48.6073 44.2049 48.8943 44.6719 49.0721L45.8608 49.5963C47.0882 50.1588 47.9738 50.8467 48.5181 51.6785C49.0619 52.5056 49.336 53.6115 49.336 54.9963C49.336 56.6552 48.8983 57.9291 48.0223 58.8185C47.1463 59.708 45.9285 60.1553 44.3738 60.1553ZM33.1058 60.1553C31.5842 60.1553 30.3765 59.7416 29.4813 58.9145C28.5861 58.0928 28.1431 56.8568 28.1431 55.2219V47.144C28.1431 45.5192 28.6149 44.288 29.5581 43.4417C30.5162 42.6051 31.7723 42.1822 33.3271 42.1822C34.8338 42.1822 36.0223 42.6147 36.9031 43.4705C37.7939 44.3312 38.2413 45.6104 38.2413 47.3172V47.9566H34.6941V47.3364C34.6941 46.6779 34.5496 46.1921 34.2703 45.8748C34.1483 45.7162 33.9905 45.5886 33.8098 45.5025C33.6291 45.4165 33.4307 45.3743 33.2306 45.3795C32.6531 45.3795 32.2442 45.5763 32.0128 45.9756C31.7666 46.5281 31.656 47.1314 31.6903 47.7353V54.7558C31.6903 56.2222 32.2058 56.9676 33.2311 56.982C33.712 56.982 34.073 56.8088 34.3235 56.4627C34.5957 56.0255 34.7251 55.5146 34.6941 55.0006V54.4769H38.2413V55.0251C38.2413 56.1646 38.02 57.1164 37.5722 57.8763C37.1465 58.6178 36.5076 59.2142 35.7386 59.588C34.9173 59.98 34.0156 60.1743 33.1058 60.1553Z" fill="white"></path>
  </g>
  <defs>
    <clipPath id="clip0_1190_2585">
      <rect width="48" height="48" fill="white" transform="translate(16 16)"></rect>
    </clipPath>
  </defs>
</svg>