<svg xmlns="http://www.w3.org/2000/svg" width="180" height="180" viewBox="0 0 180 180" fill="none">
  <path d="M46.0774 101.338C50.1789 117.275 62.7248 129.821 78.6615 133.923V180C37.6329 174.884 5.11617 142.366 0 101.338H46.0774ZM179.999 101.338C174.882 142.366 142.365 174.884 101.337 180V133.923C117.274 129.821 129.82 117.275 133.921 101.338H179.999ZM89.9993 78.6629C96.2613 78.6629 101.337 83.7387 101.337 90.0007C101.337 96.2627 96.2613 101.338 89.9993 101.338C83.7373 101.338 78.6615 96.2627 78.6615 90.0007C78.6615 83.7387 83.7373 78.6629 89.9993 78.6629ZM78.6615 46.0782C62.7248 50.1796 50.1789 62.7263 46.0774 78.6629H0C5.11617 37.6343 37.6336 5.11688 78.6615 0.000708611V46.0782ZM101.337 0C142.365 5.11688 174.882 37.6351 179.999 78.6629H133.921C129.82 62.7263 117.274 50.1796 101.337 46.0782V0Z" fill="url(#paint0_radial_1551_2169)"></path>
  <defs>
    <radialGradient id="paint0_radial_1551_2169" cx="0" cy="0" r="1" gradientUnits="userSpaceOnUse" gradientTransform="translate(40.7497 90) rotate(-180) scale(139.249 139.25)">
      <stop stop-color="#05DF72"></stop>
      <stop offset="1" stop-color="#C8EC46"></stop>
    </radialGradient>
  </defs>
</svg>