<svg xmlns="http://www.w3.org/2000/svg" width="180" height="180" viewBox="0 0 180 180" fill="none"><path d="M154.519 149.428C161.657 156.566 173.698 156.532 177.198 147.063V147.063C179.341 141.266 180.27 134.98 179.933 128.566C179.595 122.151 177.997 115.733 175.231 109.677C172.464 103.621 168.582 98.0471 163.808 93.2725C159.033 88.4978 153.459 84.6164 147.403 81.8496C141.348 79.0829 134.929 77.4851 128.515 77.1475C122.1 76.8099 115.814 77.7391 110.017 79.882V79.882C100.549 83.382 100.514 95.4232 107.652 102.561L154.519 149.428Z" fill="url(#paint0_radial_1047_1236)"></path><path d="M25.4814 30.5708C18.3433 23.4327 6.30205 23.4674 2.80205 32.936V32.936C0.659161 38.7333 -0.270004 45.0187 0.06761 51.4334C0.405224 57.8481 2.003 64.2665 4.76972 70.3221C7.53645 76.3778 11.4179 81.952 16.1925 86.7266C20.9672 91.5013 26.5414 95.3827 32.597 98.1495C38.6527 100.916 45.0711 102.514 51.4858 102.852C57.9005 103.189 64.1859 102.26 69.9831 100.117V100.117C79.4518 96.6171 79.4865 84.5758 72.3484 77.4377L25.4814 30.5708Z" fill="url(#paint1_radial_1047_1236)"></path><path d="M30.5716 154.519C23.4335 161.657 23.4682 173.698 32.9368 177.198V177.198C38.734 179.341 45.0194 180.27 51.4342 179.932C57.8489 179.595 64.2673 177.997 70.3229 175.23C76.3785 172.464 81.9528 168.582 86.7274 163.807C91.502 159.033 95.3835 153.459 98.1503 147.403C100.917 141.347 102.515 134.929 102.852 128.514C103.19 122.099 102.261 115.814 100.118 110.017V110.017C96.618 100.548 84.5767 100.513 77.4386 107.652L30.5716 154.519Z" fill="url(#paint2_radial_1047_1236)"></path><path d="M149.427 25.4814C156.565 18.3433 156.53 6.30203 147.062 2.80204V2.80204C141.265 0.659154 134.979 -0.270006 128.564 0.0676119C122.15 0.40523 115.731 2.00302 109.676 4.76974C103.62 7.53647 98.0458 11.4179 93.2711 16.1926C88.4965 20.9672 84.615 26.5414 81.8483 32.5971C79.0816 38.6527 77.4838 45.0711 77.1462 51.4858C76.8086 57.9005 77.7377 64.186 79.8806 69.9832V69.9832C83.3806 79.4518 95.4219 79.4865 102.56 72.3484L149.427 25.4814Z" fill="url(#paint3_radial_1047_1236)"></path><defs><radialGradient id="paint0_radial_1047_1236" cx="0" cy="0" r="1" gradientUnits="userSpaceOnUse" gradientTransform="translate(90.0002 90) rotate(120) scale(90 90.0001)"><stop stop-color="#FF4D7A"></stop><stop offset="1" stop-color="#FF9173"></stop></radialGradient><radialGradient id="paint1_radial_1047_1236" cx="0" cy="0" r="1" gradientUnits="userSpaceOnUse" gradientTransform="translate(90.0002 90) rotate(120) scale(90 90.0001)"><stop stop-color="#FF4D7A"></stop><stop offset="1" stop-color="#FF9173"></stop></radialGradient><radialGradient id="paint2_radial_1047_1236" cx="0" cy="0" r="1" gradientUnits="userSpaceOnUse" gradientTransform="translate(90.0002 90) rotate(120) scale(90 90.0001)"><stop stop-color="#FF4D7A"></stop><stop offset="1" stop-color="#FF9173"></stop></radialGradient><radialGradient id="paint3_radial_1047_1236" cx="0" cy="0" r="1" gradientUnits="userSpaceOnUse" gradientTransform="translate(90.0002 90) rotate(120) scale(90 90.0001)"><stop stop-color="#FF4D7A"></stop><stop offset="1" stop-color="#FF9173"></stop></radialGradient></defs></svg>