<svg xmlns="http://www.w3.org/2000/svg" width="180" height="180" viewBox="0 0 180 180" fill="none"><path fill-rule="evenodd" clip-rule="evenodd" d="M180 90C180 40.2944 139.706 -6.10673e-06 90 -3.93402e-06C40.2944 -1.76132e-06 -6.08706e-06 40.2944 -3.93402e-06 90C-1.74165e-06 139.706 40.2944 180 90 180C139.706 180 180 139.706 180 90ZM103.317 76.6822C110.715 84.0799 121.948 85.6525 144.415 88.7978L153 89.9997L144.415 91.2016C121.948 94.3469 110.715 95.9196 103.318 103.317C95.9199 110.715 94.3472 121.948 91.2019 144.415L90 153L88.798 144.415C85.6527 121.948 84.0801 110.715 76.6824 103.317C69.2848 95.9196 58.0515 94.3469 35.5849 91.2016L27 89.9997L35.585 88.7978C58.0516 85.6525 69.2848 84.0799 76.6825 76.6822C84.0801 69.2846 85.6528 58.0513 88.7981 35.5847L90 27L91.2018 35.5846C94.3471 58.0513 95.9198 69.2846 103.317 76.6822Z" fill="url(#paint0_radial_1047_1233)"></path><defs><radialGradient id="paint0_radial_1047_1233" cx="0" cy="0" r="1" gradientUnits="userSpaceOnUse" gradientTransform="translate(90 139.25) rotate(90) scale(139.25)"><stop stop-color="#C994FF"></stop><stop offset="1" stop-color="#FFB5DE"></stop></radialGradient></defs></svg>