<svg xmlns="http://www.w3.org/2000/svg" width="80" height="80" viewBox="0 0 80 80" fill="none">
  <path d="M0 38.4C0 24.9587 0 18.2381 2.61584 13.1042C4.9168 8.58834 8.58834 4.9168 13.1042 2.61584C18.2381 0 24.9587 0 38.4 0H41.6C55.0413 0 61.7619 0 66.8958 2.61584C71.4117 4.9168 75.0832 8.58834 77.3842 13.1042C80 18.2381 80 24.9587 80 38.4V41.6C80 55.0413 80 61.7619 77.3842 66.8958C75.0832 71.4117 71.4117 75.0832 66.8958 77.3842C61.7619 80 55.0413 80 41.6 80H38.4C24.9587 80 18.2381 80 13.1042 77.3842C8.58834 75.0832 4.9168 71.4117 2.61584 66.8958C0 61.7619 0 55.0413 0 41.6V38.4Z" fill="#191919"></path>
  <g clip-path="url(#clip0_1193_3651)">
    <path d="M57.8605 23.3361C54.4859 21.7571 50.9158 20.6352 47.2446 20C46.7873 20.8267 46.2531 21.9387 45.8846 22.8233C41.9264 22.2281 38.0046 22.2281 34.1192 22.8233C33.7509 21.9389 33.2046 20.8267 32.7431 20C29.0683 20.6355 25.4952 21.7603 22.119 23.3443C15.4006 33.4969 13.5793 43.397 14.4898 53.157C18.9459 56.4846 23.2643 58.5061 27.5099 59.8289C28.5651 58.3779 29.4978 56.8417 30.2985 55.2362C28.7741 54.6558 27.3046 53.9406 25.9073 53.0991C26.275 52.8266 26.6341 52.5425 26.9839 52.2474C35.4506 56.2076 44.6502 56.2076 53.0161 52.2474C53.3674 52.5406 53.7264 52.8246 54.0925 53.0991C52.693 53.9429 51.2207 54.6595 49.6933 55.2404C50.4985 56.8525 51.4295 58.3902 52.4818 59.833C56.7314 58.5104 61.0539 56.4888 65.5099 53.157C66.5785 41.8428 63.6848 32.0336 57.8605 23.3361ZM31.4521 47.1548C28.9103 47.1548 26.8259 44.7819 26.8259 41.8925C26.8259 39.003 28.8659 36.6261 31.4521 36.6261C34.0384 36.6261 36.1226 38.9988 36.0782 41.8925C36.0822 44.7819 34.0384 47.1548 31.4521 47.1548ZM48.5477 47.1548C46.006 47.1548 43.9218 44.7819 43.9218 41.8925C43.9218 39.003 45.9616 36.6261 48.5477 36.6261C51.1341 36.6261 53.2183 38.9988 53.1739 41.8925C53.1739 44.7819 51.1341 47.1548 48.5477 47.1548Z" fill="#5865F2"></path>
  </g>
  <defs>
    <clipPath id="clip0_1193_3651">
      <rect width="51.4573" height="40" fill="white" transform="translate(14.2714 20)"></rect>
    </clipPath>
  </defs>
</svg>