<svg xmlns="http://www.w3.org/2000/svg" id="Layer_1" version="1.1" viewBox="0 0 80 80">
  <defs>
    <style>
      .st0 {
        fill-rule: evenodd;
      }

      .st0, .st1 {
        fill: #fff;
      }

      .st2 {
        fill: #191919;
      }
    </style>
  </defs>
  <path class="st2" d="M0,38.4c0-13.4,0-20.2,2.6-25.3,2.3-4.5,6-8.2,10.5-10.5C18.2,0,25,0,38.4,0h3.2C55,0,61.8,0,66.9,2.6c4.5,2.3,8.2,6,10.5,10.5,2.6,5.1,2.6,11.9,2.6,25.3v3.2c0,13.4,0,20.2-2.6,25.3-2.3,4.5-6,8.2-10.5,10.5-5.1,2.6-11.9,2.6-25.3,2.6h-3.2c-13.4,0-20.2,0-25.3-2.6-4.5-2.3-8.2-6-10.5-10.5-2.6-5.1-2.6-11.9-2.6-25.3v-3.2Z"></path>
  <g>
    <path class="st1" d="M31.6,38.1h-1.5l1.8,5.7h1.6l1.8-5.7h-1.5l-1.1,4.3-1.1-4.3Z"></path>
    <path class="st1" d="M10.4,36.2h1.6v7.5h-1.6v-7.5Z"></path>
    <path class="st1" d="M13.5,36.2h1.6v7.5h-1.6v-7.5Z"></path>
    <path class="st1" d="M16.7,36.2h4.6v1.3h-3.1v1.8h2.9v1.3h-2.9v2h3.1v1.3h-4.6v-7.5Z"></path>
    <path class="st1" d="M22.3,36.2h1.5v7.5h-1.5v-7.5Z"></path>
    <path class="st1" d="M24.6,40.9c0-2.1,1-2.9,2.6-2.9s2.5.9,2.5,3v.3h-3.6c0,1.2.4,1.6,1.1,1.6s.9-.3,1-.9h1.5c0,1.2-1.1,1.9-2.5,1.9s-2.6-.9-2.6-3ZM28.3,40.3c0-1-.4-1.4-1.1-1.4s-1,.3-1.1,1.4h2.2Z"></path>
    <path class="st1" d="M35.7,40.9c0-2.1,1-2.9,2.6-2.9s2.5.9,2.5,3v.3h-3.6c0,1.2.4,1.6,1.1,1.6s.9-.3,1-.9h1.5c0,1.2-1.1,1.9-2.5,1.9s-2.6-.9-2.6-3ZM39.3,40.3c0-1-.4-1.4-1.1-1.4s-1,.3-1.1,1.4h2.2Z"></path>
    <path class="st1" d="M47.8,36.2h1.6v6.3h2.9v1.3h-4.5v-7.5Z"></path>
    <path class="st0" d="M52.7,40.9c0-2.2,1-2.9,2.3-2.9s1.2.4,1.4.7v-.6h1.5v5.7h-1.5v-.7c-.2.4-.8.8-1.5.8-1.3,0-2.2-.9-2.2-3ZM55.3,39c.7,0,1.1.6,1.1,1.8s-.4,1.8-1.1,1.8-1.2-.6-1.2-1.8.4-1.8,1.2-1.8Z"></path>
    <path class="st0" d="M60.5,43v.7h-1.5v-7.5h1.5v2.5c.3-.4.8-.7,1.5-.7,1.2,0,2.2.8,2.2,2.9s-1,3-2.3,3-1.2-.3-1.5-.8ZM61.6,39c.7,0,1.2.5,1.2,1.8s-.4,1.8-1.2,1.8-1.1-.6-1.1-1.8.4-1.8,1.1-1.8Z"></path>
    <path class="st1" d="M64.9,42h1.5c0,.6.3.9.9.9s.9-.3.9-.7-.2-.5-.8-.7h-.5c-1.3-.4-1.9-.8-1.9-1.9s1-1.7,2.3-1.7,2.2.5,2.3,1.7h-1.5c0-.5-.3-.7-.8-.7s-.8.2-.8.6.3.5.7.6h.5c1.2.4,2,.7,2,1.9s-1,1.8-2.4,1.8-2.3-.6-2.3-1.8Z"></path>
    <path class="st1" d="M43.2,40.4c0-.9.4-1.4,1.1-1.4s.8.3.8,1.1v3.6h1.5v-3.9c0-1.3-.7-1.9-1.8-1.9s-1.3.4-1.6.9v-.7h-1.5v5.7h1.5v-3.3Z"></path>
  </g>
</svg>