<svg xmlns="http://www.w3.org/2000/svg" id="Layer_1" version="1.1" viewBox="0 0 80 80">
  <defs>
    <style>
      .st0 {
        fill: #87e64b;
      }

      .st1 {
        fill: #191919;
      }

      .st2 {
        fill: #fff5ed;
      }
    </style>
  </defs>
  <path class="st1" d="M0,38.4c0-13.4,0-20.2,2.6-25.3,2.3-4.5,6-8.2,10.5-10.5C18.2,0,25,0,38.4,0h3.2C55,0,61.8,0,66.9,2.6c4.5,2.3,8.2,6,10.5,10.5,2.6,5.1,2.6,11.9,2.6,25.3v3.2c0,13.4,0,20.2-2.6,25.3-2.3,4.5-6,8.2-10.5,10.5-5.1,2.6-11.9,2.6-25.3,2.6h-3.2c-13.4,0-20.2,0-25.3-2.6-4.5-2.3-8.2-6-10.5-10.5C0,61.8,0,55,0,41.6,0,41.6,0,38.4,0,38.4Z"></path>
  <g>
    <path class="st2" d="M26.3,35.8c2.1,0,4.1,1.2,4.1,3.9s0,.5,0,.8c0,0,0,0-.1,0h-5.8c.2,1,.8,1.6,1.9,1.6s1.2-.4,1.4-.9c0,0,0,0,.2,0l2.2.5c0,0,.1,0,0,.1-.5,1.1-1.7,2.3-3.8,2.3s-4.3-1.8-4.3-4.2,1.6-4.2,4.3-4.2h0ZM27.9,39.1c-.1-.9-.7-1.4-1.6-1.4s-1.7.6-1.8,1.4h3.5Z"></path>
    <path class="st2" d="M31.1,43.8v-7.7c0,0,0-.1.1-.1h2.2c0,0,.1,0,.1.1v.9c.5-.8,1.3-1.3,2.4-1.3,1.5,0,2.8,1,2.8,3.3v4.7c0,0,0,.1-.1.1h-2.2c0,0-.1,0-.1-.1v-4.3c0-1-.5-1.6-1.3-1.6s-1.4.6-1.4,1.8v4.1c0,0,0,.1-.1.1h-2.2c0,0-.1,0-.1-.1Z"></path>
    <path class="st2" d="M38.8,36.1h2.4s0,0,.1,0l1.8,5.9,1.8-5.9s0,0,.1,0h2.4c0,0,.1,0,0,.1l-2.7,7.6c0,0,0,0-.1,0h-3c0,0-.1,0-.1,0l-2.7-7.6c0,0,0-.1,0-.1h0Z"></path>
    <path class="st2" d="M52.7,43.8v-1.2c-.4.8-1.2,1.6-2.6,1.6s-2.7-1-2.7-2.4,1-2.6,3.1-2.6h1.2c.7,0,.9-.5.8-.8,0-.6-.6-.8-1.3-.8s-1.4.5-1.5,1.1c0,0,0,.1-.1,0l-2.1-.3c0,0,0,0,0-.1.3-1.8,2.1-2.6,3.8-2.6s3.7.4,3.7,3.7v4.3c0,0,0,.1-.1.1h-2.1c0,0-.1,0-.1-.1h0ZM50.9,42.4c1,0,1.7-.7,1.7-1.7h-1.5c-.9,0-1.2.4-1.2.9,0,.5.4.8,1,.8Z"></path>
    <path class="st2" d="M55.4,37.9v-1.8c0,0,0-.1.1-.1h.9c.4,0,.7-.3.7-.7v-1.4c0,0,0-.1.1-.1h2c0,0,.1,0,.1.1v2.1h1.6c0,0,.1,0,.1.1v1.8c0,0,0,.1-.1.1h-1.6v2.8c0,.9.8,1.3,1.6,1,0,0,.1,0,.1,0v1.9c0,0,0,.1-.1.1-.2,0-.5,0-.9,0-1.9,0-3.2-.6-3.2-3.4v-2.6h-1.4c0,0-.1,0-.1-.1h0Z"></path>
    <path class="st2" d="M70.1,40c0,2.3-1.6,4.2-4.3,4.2s-4.3-1.9-4.3-4.2,1.6-4.2,4.3-4.2,4.3,1.9,4.3,4.2ZM67.6,40c0-1.1-.6-2.1-1.8-2.1s-1.8,1-1.8,2.1.6,2.1,1.8,2.1,1.8-1,1.8-2.1Z"></path>
    <path class="st0" d="M15.4,46.9c.3,0,.6-.3.6-.6s-.3-.6-.6-.6-.6.3-.6.6.3.6.6.6Z"></path>
    <path class="st0" d="M19,42.1l-3.5.4c0,0,0,0,0-.1l3.4-2.6c.2-.2.4-.5.3-.8,0-.5-.4-.8-.9-.7l-3.7.5c0,0,0,0,0-.1l3.7-2.8c.7-.6.8-1.7.1-2.3-.6-.6-1.6-.6-2.2,0l-5.9,6c-.2.2-.3.6-.3.9,0,.5.6.9,1.2.8l3.2-.6c0,0,.1,0,0,.1l-3.5,2.3c-.4.3-.6.8-.5,1.3.1.7.8,1,1.4.9l5.3-1.3c0,0,.1,0,0,.1l-.8,1c-.2.3.1.7.4.4l2.7-2.2c.5-.4.2-1.2-.5-1.1Z"></path>
  </g>
</svg>