<svg xmlns="http://www.w3.org/2000/svg" width="80" height="80" viewBox="0 0 80 80" fill="none"><path d="M0 38.4C0 24.9587 0 18.2381 2.61584 13.1042C4.9168 8.58834 8.58834 4.9168 13.1042 2.61584C18.2381 0 24.9587 0 38.4 0H41.6C55.0413 0 61.7619 0 66.8958 2.61584C71.4117 4.9168 75.0832 8.58834 77.3842 13.1042C80 18.2381 80 24.9587 80 38.4V41.6C80 55.0413 80 61.7619 77.3842 66.8958C75.0832 71.4117 71.4117 75.0832 66.8958 77.3842C61.7619 80 55.0413 80 41.6 80H38.4C24.9587 80 18.2381 80 13.1042 77.3842C8.58834 75.0832 4.9168 71.4117 2.61584 66.8958C0 61.7619 0 55.0413 0 41.6V38.4Z" fill="#191919"></path><g clip-path="url(#clip0_1182_2251)"><mask id="mask0_1182_2251" style="mask-type:luminance" maskUnits="userSpaceOnUse" x="23" y="16" width="33" height="48"><path d="M55.8 16H23.8V64H55.8V16Z" fill="white"></path></mask><g mask="url(#mask0_1182_2251)"><path d="M31.8 64.0005C36.216 64.0005 39.8 60.4165 39.8 56.0005V48.0005H31.8C27.384 48.0005 23.8 51.5845 23.8 56.0005C23.8 60.4165 27.384 64.0005 31.8 64.0005Z" fill="#0ACF83"></path><path d="M23.8 39.9995C23.8 35.5835 27.384 31.9995 31.8 31.9995H39.8V47.9995H31.8C27.384 47.9995 23.8 44.4155 23.8 39.9995Z" fill="#A259FF"></path><path d="M23.8 24C23.8 19.584 27.384 16 31.8 16H39.8V32H31.8C27.384 32 23.8 28.416 23.8 24Z" fill="#F24E1E"></path><path d="M39.8001 16H47.8001C52.2161 16 55.8001 19.584 55.8001 24C55.8001 28.416 52.2161 32 47.8001 32H39.8001V16Z" fill="#FF7262"></path><path d="M55.8001 39.9995C55.8001 44.4155 52.2161 47.9995 47.8001 47.9995C43.3841 47.9995 39.8001 44.4155 39.8001 39.9995C39.8001 35.5835 43.3841 31.9995 47.8001 31.9995C52.2161 31.9995 55.8001 35.5835 55.8001 39.9995Z" fill="#1ABCFE"></path></g></g><defs><clipPath id="clip0_1182_2251"><rect width="32.4" height="48" fill="white" transform="translate(23.8 16)"></rect></clipPath></defs></svg>