<svg xmlns="http://www.w3.org/2000/svg" width="80" height="80" viewBox="0 0 80 80" fill="none">
  <path d="M0 38.4C0 24.9587 0 18.2381 2.61584 13.1042C4.9168 8.58834 8.58834 4.9168 13.1042 2.61584C18.2381 0 24.9587 0 38.4 0H41.6C55.0413 0 61.7619 0 66.8958 2.61584C71.4117 4.9168 75.0832 8.58834 77.3842 13.1042C80 18.2381 80 24.9587 80 38.4V41.6C80 55.0413 80 61.7619 77.3842 66.8958C75.0832 71.4117 71.4117 75.0832 66.8958 77.3842C61.7619 80 55.0413 80 41.6 80H38.4C24.9587 80 18.2381 80 13.1042 77.3842C8.58834 75.0832 4.9168 71.4117 2.61584 66.8958C0 61.7619 0 55.0413 0 41.6V38.4Z" fill="#191919"></path>
  <g clip-path="url(#clip0_1193_3551)">
    <path d="M43.1945 40.0002L47.9334 45.4168L54.3056 49.4891L55.4167 40.0335L54.3056 30.7891L47.8112 34.3668L43.1945 40.0002Z" fill="#00832D"></path>
    <path d="M15.6945 48.611V56.6666C15.6945 58.5082 17.1862 59.9999 19.0278 59.9999H27.0834L28.75 53.911L27.0834 48.611L21.5556 46.9443L15.6945 48.611Z" fill="#0066DA"></path>
    <path d="M27.0833 20L15.6945 31.3889L21.5556 33.0556L27.0833 31.3889L28.7222 26.1611L27.0833 20Z" fill="#E94235"></path>
    <path d="M27.0834 31.3887H15.6945V48.6109H27.0834V31.3887Z" fill="#2684FC"></path>
    <path d="M61.5834 24.8225L54.3056 30.7892V49.4892L61.6167 55.4836C62.7112 56.3392 64.3112 55.5586 64.3112 54.167V26.1114C64.3112 24.7031 62.675 23.9309 61.5834 24.8225ZM43.1945 40.0003V48.6114H27.0834V60.0003H50.9723C52.8139 60.0003 54.3056 58.5086 54.3056 56.667V49.4892L43.1945 40.0003Z" fill="#00AC47"></path>
    <path d="M50.9723 20H27.0834V31.3889H43.1945V40L54.3056 30.7944V23.3333C54.3056 21.4917 52.8139 20 50.9723 20Z" fill="#FFBA00"></path>
  </g>
  <defs>
    <clipPath id="clip0_1193_3551">
      <rect width="48.6111" height="40" fill="white" transform="translate(15.6945 20)"></rect>
    </clipPath>
  </defs>
</svg>