<svg xmlns="http://www.w3.org/2000/svg" width="80" height="80" viewBox="0 0 80 80" fill="none">
  <path d="M0 38.4C0 24.9587 0 18.2381 2.61584 13.1042C4.9168 8.58834 8.58834 4.9168 13.1042 2.61584C18.2381 0 24.9587 0 38.4 0H41.6C55.0413 0 61.7619 0 66.8958 2.61584C71.4117 4.9168 75.0832 8.58834 77.3842 13.1042C80 18.2381 80 24.9587 80 38.4V41.6C80 55.0413 80 61.7619 77.3842 66.8958C75.0832 71.4117 71.4117 75.0832 66.8958 77.3842C61.7619 80 55.0413 80 41.6 80H38.4C24.9587 80 18.2381 80 13.1042 77.3842C8.58834 75.0832 4.9168 71.4117 2.61584 66.8958C0 61.7619 0 55.0413 0 41.6V38.4Z" fill="#191919"></path>
  <path fill-rule="evenodd" clip-rule="evenodd" d="M30.6312 39.4819C29.8954 39.6445 29.133 39.73 28.3519 39.73C22.1987 39.73 17.2103 34.4179 17.2103 27.8652C17.2103 21.3121 22.1987 16 28.3519 16C34.5055 16 39.4935 21.3121 39.4935 27.8652C39.4936 28.4064 39.4594 28.9469 39.3909 29.4832H40.6091C40.5406 28.9469 40.5064 28.4064 40.5065 27.8652C40.5065 21.3121 45.4945 16 51.6481 16C57.8013 16 62.7897 21.3121 62.7897 27.8652C62.7897 34.4179 57.8013 39.73 51.6481 39.73C50.9686 39.7304 50.2905 39.6649 49.6224 39.5345V40.4655C50.2905 40.3349 50.9686 40.2694 51.6481 40.2696C57.8013 40.2696 62.7897 45.5821 62.7897 52.1348C62.7897 58.6875 57.8013 64 51.6481 64C45.4949 64 40.5065 58.6875 40.5065 52.1348C40.5065 51.3029 40.587 50.4912 40.7399 49.7073H39.3097C39.4306 50.4072 39.4935 51.1284 39.4935 51.8654C39.4935 58.4181 34.5055 63.7302 28.3519 63.7302C22.1987 63.7302 17.2103 58.4181 17.2103 51.8654C17.2103 45.3123 22.1987 40.0002 28.3519 40.0002C29.133 40.0002 29.8954 40.0857 30.6312 40.2487V39.4819Z" fill="url(#paint0_radial_1191_2676)"></path>
  <defs>
    <radialGradient id="paint0_radial_1191_2676" cx="0" cy="0" r="1" gradientUnits="userSpaceOnUse" gradientTransform="translate(28.7875 30.1278) rotate(54.2319) scale(62.2579 61.3206)">
      <stop stop-color="#98ECFF"></stop>
      <stop offset="0.635" stop-color="#ABFF84"></stop>
      <stop offset="0.859" stop-color="#DFFFD1"></stop>
      <stop offset="0.991" stop-color="#F3FFEE"></stop>
    </radialGradient>
  </defs>
</svg>