<svg xmlns="http://www.w3.org/2000/svg" width="80" height="80" viewBox="0 0 80 80" fill="none">
  <path d="M0 38.4C0 24.9587 0 18.2381 2.61584 13.1042C4.9168 8.58834 8.58834 4.9168 13.1042 2.61584C18.2381 0 24.9587 0 38.4 0H41.6C55.0413 0 61.7619 0 66.8958 2.61584C71.4117 4.9168 75.0832 8.58834 77.3842 13.1042C80 18.2381 80 24.9587 80 38.4V41.6C80 55.0413 80 61.7619 77.3842 66.8958C75.0832 71.4117 71.4117 75.0832 66.8958 77.3842C61.7619 80 55.0413 80 41.6 80H38.4C24.9587 80 18.2381 80 13.1042 77.3842C8.58834 75.0832 4.9168 71.4117 2.61584 66.8958C0 61.7619 0 55.0413 0 41.6V38.4Z" fill="#191919"></path>
  <g clip-path="url(#clip0_1190_2576)">
    <path d="M22.923 58.4615L19.1384 16H60.7692L56.9846 58.4615L39.9077 63.2615" fill="#E34F26"></path>
    <path d="M40 59.5694L53.7538 55.7848L56.9846 19.4155H40" fill="#EF652A"></path>
    <path d="M40 35.1998H33.0769L32.6154 29.846H40V24.6768H26.8923L28.2769 40.4614H40V35.1998ZM40 48.7691L34.0923 47.1998L33.7231 43.046H28.5539L29.2 51.2614L40 54.2152V48.7691Z" fill="#ECEDEE"></path>
    <path d="M40 40.4614H46.3692L45.7231 47.1998L40 48.7691V54.2152L50.6154 51.2614L52.0923 35.1998H40V40.4614ZM40 24.6768V29.846H52.5538L53.0154 24.6768H40Z" fill="white"></path>
  </g>
  <defs>
    <clipPath id="clip0_1190_2576">
      <rect width="41.7231" height="48" fill="white" transform="translate(19.1384 16)"></rect>
    </clipPath>
  </defs>
</svg>