<svg xmlns="http://www.w3.org/2000/svg" width="80" height="80" viewBox="0 0 80 80" fill="none"><path d="M0 38.4C0 24.9587 0 18.2381 2.61584 13.1042C4.9168 8.58834 8.58834 4.9168 13.1042 2.61584C18.2381 0 24.9587 0 38.4 0H41.6C55.0413 0 61.7619 0 66.8958 2.61584C71.4117 4.9168 75.0832 8.58834 77.3842 13.1042C80 18.2381 80 24.9587 80 38.4V41.6C80 55.0413 80 61.7619 77.3842 66.8958C75.0832 71.4117 71.4117 75.0832 66.8958 77.3842C61.7619 80 55.0413 80 41.6 80H38.4C24.9587 80 18.2381 80 13.1042 77.3842C8.58834 75.0832 4.9168 71.4117 2.61584 66.8958C0 61.7619 0 55.0413 0 41.6V38.4Z" fill="#191919"></path><g clip-path="url(#clip0_1182_2306)"><mask id="mask0_1182_2306" style="mask-type:luminance" maskUnits="userSpaceOnUse" x="15" y="16" width="50" height="48"><path d="M64.3308 16H15.1V64H64.3308V16Z" fill="white"></path></mask><g mask="url(#mask0_1182_2306)"><path d="M55.6128 16H23.8179C19.0031 16 15.1 19.9032 15.1 24.7179V55.2821C15.1 60.0968 19.0031 64 23.8179 64H55.6128C60.4276 64 64.3308 60.0968 64.3308 55.2821V24.7179C64.3308 19.9032 60.4276 16 55.6128 16Z" fill="#330000"></path><path d="M38.9564 44.8059H31.3275L29.7753 49.6276C29.7542 49.7155 29.703 49.7934 29.6307 49.8476C29.5583 49.9019 29.4693 49.9292 29.379 49.9249H25.515C25.2946 49.9249 25.2176 49.8038 25.2838 49.5616L31.8889 30.5388C31.955 30.3407 32.0211 30.115 32.0871 29.8618C32.1735 29.4211 32.2177 28.9733 32.2192 28.5243C32.2147 28.4929 32.2176 28.4608 32.2276 28.4308C32.2377 28.4007 32.2546 28.3734 32.277 28.3509C32.2995 28.3285 32.3268 28.3116 32.3569 28.3015C32.387 28.2915 32.419 28.2886 32.4504 28.2931H37.7014C37.8553 28.2931 37.9433 28.3481 37.9656 28.4582L45.4625 49.5946C45.5286 49.815 45.4624 49.9251 45.2643 49.9249H40.971C40.8972 49.933 40.823 49.9141 40.7622 49.8715C40.7015 49.829 40.6582 49.7658 40.6407 49.6937L38.9564 44.8059ZM32.5164 40.6447H37.7344C37.6024 40.2045 37.4482 39.7091 37.2721 39.1585C37.0956 38.6084 36.9085 38.0194 36.7107 37.3916C36.5125 36.7642 36.3143 36.1367 36.1162 35.5092C35.9181 34.8817 35.7364 34.2762 35.5713 33.6927C35.4061 33.1096 35.2575 32.5758 35.1255 32.091H35.0925C34.9065 32.983 34.675 33.8648 34.3989 34.7331C34.0903 35.7238 33.7765 36.7366 33.4576 37.7714C33.1382 38.8066 32.8245 39.7644 32.5164 40.6447Z" fill="#FF9A00"></path><path d="M49.9206 31.7939C49.5837 31.8075 49.2479 31.7498 48.9348 31.6245C48.6218 31.4993 48.3388 31.3095 48.1042 31.0674C47.8703 30.8148 47.6885 30.5184 47.5695 30.1954C47.4504 29.8723 47.3964 29.5289 47.4106 29.1849C47.3986 28.8443 47.4585 28.505 47.5866 28.1892C47.7146 27.8733 47.9079 27.588 48.1536 27.352C48.3971 27.1184 48.6844 26.9353 48.999 26.8134C49.3136 26.6915 49.6493 26.6333 49.9866 26.642C50.7792 26.642 51.4013 26.8786 51.8526 27.352C52.0804 27.598 52.2575 27.8865 52.3736 28.201C52.4898 28.5155 52.5428 28.8499 52.5296 29.1849C52.5434 29.5302 52.4876 29.8749 52.3656 30.1982C52.2437 30.5216 52.058 30.8172 51.8195 31.0674C51.5703 31.313 51.2729 31.5044 50.9461 31.6295C50.6193 31.7545 50.2701 31.8105 49.9206 31.7939ZM47.6417 49.5947V33.8085C47.6417 33.6104 47.7295 33.5112 47.906 33.5112H51.9681C52.1442 33.5112 52.2322 33.6103 52.2324 33.8085V49.5947C52.2324 49.8151 52.1443 49.9251 51.9681 49.925H47.939C47.7409 49.925 47.6418 49.8149 47.6417 49.5947Z" fill="#FF9A00"></path></g></g><defs><clipPath id="clip0_1182_2306"><rect width="49.8" height="48" fill="white" transform="translate(15.1 16)"></rect></clipPath></defs></svg>