<svg xmlns="http://www.w3.org/2000/svg" width="80" height="80" viewBox="0 0 80 80" fill="none">
  <path d="M0 38.4C0 24.9587 0 18.2381 2.61584 13.1042C4.9168 8.58834 8.58834 4.9168 13.1042 2.61584C18.2381 0 24.9587 0 38.4 0H41.6C55.0413 0 61.7619 0 66.8958 2.61584C71.4117 4.9168 75.0832 8.58834 77.3842 13.1042C80 18.2381 80 24.9587 80 38.4V41.6C80 55.0413 80 61.7619 77.3842 66.8958C75.0832 71.4117 71.4117 75.0832 66.8958 77.3842C61.7619 80 55.0413 80 41.6 80H38.4C24.9587 80 18.2381 80 13.1042 77.3842C8.58834 75.0832 4.9168 71.4117 2.61584 66.8958C0 61.7619 0 55.0413 0 41.6V38.4Z" fill="#191919"></path>
  <g clip-path="url(#clip0_1190_2595)">
    <path d="M16 16H64V64H16V16Z" fill="#F0DB4F"></path>
    <path d="M60.0715 52.5519C59.7201 50.3618 58.292 48.523 54.0624 46.8074C52.5932 46.1322 50.9551 45.6485 50.4669 44.5352C50.2935 43.8873 50.2707 43.5223 50.3802 43.1299C50.6951 41.8569 52.2144 41.4599 53.419 41.8249C54.1947 42.085 54.9293 42.6828 55.3719 43.6363C57.4433 42.2949 57.4388 42.304 58.8852 41.3824C58.3559 40.5611 58.073 40.1823 57.7262 39.8311C56.4806 38.4394 54.7833 37.7231 52.0684 37.7778C51.5985 37.8371 51.124 37.901 50.654 37.9603C49.2989 38.3025 48.0076 39.0143 47.2502 39.9679C44.9779 42.5459 45.6259 47.0584 48.3909 48.9155C51.1148 50.9596 55.1163 51.425 55.6274 53.3368C56.1247 55.6774 53.9073 56.4348 51.7034 56.1657C50.0791 55.828 49.1757 55.0022 48.1992 53.501C46.4016 54.5413 46.4016 54.5413 44.5537 55.6044C44.9917 56.5626 45.4525 56.9961 46.1871 57.8265C49.6639 61.3535 58.365 61.1801 59.9255 55.8417C59.9893 55.6591 60.4092 54.4363 60.0715 52.5519ZM42.0943 38.0607H37.6046C37.6046 41.939 37.5864 45.7899 37.5864 49.6683C37.5864 52.1367 37.7141 54.3998 37.3126 55.0934C36.6556 56.4576 34.9537 56.2888 34.178 56.0241C33.3886 55.6363 32.9871 55.0842 32.5217 54.304C32.394 54.0804 32.2981 53.9071 32.2662 53.8934C31.048 54.6371 29.8342 55.3853 28.616 56.1291C29.2229 57.3747 30.1171 58.4561 31.2624 59.1587C32.9734 60.1853 35.273 60.5002 37.6776 59.9481C39.2426 59.4918 40.5932 58.5474 41.3004 57.1101C42.3224 55.2257 42.1034 52.9443 42.0943 50.4211C42.1171 46.3055 42.0943 42.1899 42.0943 38.0607Z" fill="#323330"></path>
  </g>
  <defs>
    <clipPath id="clip0_1190_2595">
      <rect width="48" height="48" fill="white" transform="translate(16 16)"></rect>
    </clipPath>
  </defs>
</svg>