<svg xmlns="http://www.w3.org/2000/svg" xmlns:xlink="http://www.w3.org/1999/xlink" id="Layer_1" version="1.1" viewBox="0 0 80 80">
  <defs>
    <style>
      .st0 {
        fill: url(#linear-gradient);
      }

      .st1 {
        fill: #fff;
      }

      .st2 {
        fill: #191919;
      }
    </style>
    <linearGradient id="linear-gradient" x1="-458.3" y1="540.2" x2="-458.1" y2="540.2" gradientTransform="translate(-159860.6 -135596) rotate(-90) scale(296)" gradientUnits="userSpaceOnUse">
      <stop offset="0" stop-color="#0054eb"></stop>
      <stop offset="0" stop-color="#0054eb"></stop>
      <stop offset="1" stop-color="#53cffa"></stop>
    </linearGradient>
  </defs>
  <path class="st2" d="M0,38.4c0-13.4,0-20.2,2.6-25.3,2.3-4.5,6-8.2,10.5-10.5C18.2,0,25,0,38.4,0h3.2C55,0,61.8,0,66.9,2.6c4.5,2.3,8.2,6,10.5,10.5,2.6,5.1,2.6,11.9,2.6,25.3v3.2c0,13.4,0,20.2-2.6,25.3-2.3,4.5-6,8.2-10.5,10.5-5.1,2.6-11.9,2.6-25.3,2.6h-3.2c-13.4,0-20.2,0-25.3-2.6-4.5-2.3-8.2-6-10.5-10.5-2.6-5.1-2.6-11.9-2.6-25.3v-3.2Z"></path>
  <g>
    <path class="st0" d="M53.3,64h-26.6c-5.9,0-10.7-4.8-10.7-10.7v-26.6c0-5.9,4.8-10.7,10.7-10.7h26.6c5.9,0,10.7,4.8,10.7,10.7v26.6c0,5.9-4.8,10.7-10.7,10.7Z"></path>
    <path class="st1" d="M45.9,53.6h-4.7c-.4,0-.6-.3-.6-.6v-11.3h-1.3v11.3c0,.4-.3.6-.6.6h-4.8c-.4,0-.7.3-.7.6s.3.7.7.7h12c.4,0,.7-.2.7-.7,0-.4-.3-.6-.7-.6Z"></path>
    <path class="st1" d="M25.4,39.4c.3.8,1.1,1.5,2,1.5h25.1c.9,0,1.7-.6,2-1.5h-29.1Z"></path>
    <path class="st1" d="M52.9,28.2c0-.9-.7-1.6-1.6-1.6h-22.6c-.9,0-1.6.7-1.6,1.6l-.3,10.3h26.5l-.3-10.3Z"></path>
    <path class="st1" d="M30.3,24.4c0-.5.4-1,1-1h5.9v-.6h-5.9c-.9,0-1.6.7-1.6,1.6v4.9h.6v-4.9Z"></path>
    <path class="st1" d="M38.8,24.4h-2.9c-.6,0-1.1-.5-1.1-1.1v-.4c0-.6.5-1.1,1.1-1.1h2.9c.6,0,1.1.5,1.1,1.1v.4c0,.6-.5,1.1-1.1,1.1Z"></path>
  </g>
</svg>