<svg xmlns="http://www.w3.org/2000/svg" width="80" height="80" viewBox="0 0 80 80" fill="none"><path d="M0 38.4C0 24.9587 0 18.2381 2.61584 13.1042C4.9168 8.58834 8.58834 4.9168 13.1042 2.61584C18.2381 0 24.9587 0 38.4 0H41.6C55.0413 0 61.7619 0 66.8958 2.61584C71.4117 4.9168 75.0832 8.58834 77.3842 13.1042C80 18.2381 80 24.9587 80 38.4V41.6C80 55.0413 80 61.7619 77.3842 66.8958C75.0832 71.4117 71.4117 75.0832 66.8958 77.3842C61.7619 80 55.0413 80 41.6 80H38.4C24.9587 80 18.2381 80 13.1042 77.3842C8.58834 75.0832 4.9168 71.4117 2.61584 66.8958C0 61.7619 0 55.0413 0 41.6V38.4Z" fill="#191919"></path><g clip-path="url(#clip0_1182_2333)"><mask id="mask0_1182_2333" style="mask-type:luminance" maskUnits="userSpaceOnUse" x="17" y="18" width="45" height="44"><path d="M61.7963 18.5H17.6937V61.5H61.7963V18.5Z" fill="white"></path></mask><g mask="url(#mask0_1182_2333)"><path d="M53.9865 18.5H25.5035C21.1903 18.5 17.6937 21.9966 17.6937 26.3098V53.6902C17.6937 58.0034 21.1903 61.5 25.5035 61.5H53.9865C58.2997 61.5 61.7963 58.0034 61.7963 53.6902V26.3098C61.7963 21.9966 58.2997 18.5 53.9865 18.5Z" fill="#001E36"></path><path d="M40.8549 48.8911H29.1983C29.001 48.8911 28.9023 48.7826 28.9024 48.5656V29.7789C28.8973 29.7427 28.9006 29.7058 28.9122 29.6712C28.9237 29.6365 28.9432 29.605 28.969 29.5792C28.9949 29.5534 29.0264 29.5338 29.0611 29.5223C29.0957 29.5108 29.1326 29.5075 29.1688 29.5126H32.7782C32.8063 29.5086 32.835 29.5113 32.8619 29.5203C32.8889 29.5293 32.9133 29.5444 32.9334 29.5645C32.9535 29.5846 32.9686 29.6091 32.9776 29.636C32.9866 29.663 32.9893 29.6916 32.9853 29.7198V45.1634H41.4763C41.6538 45.1634 41.7228 45.2521 41.6834 45.4297L41.1509 48.6248C41.1497 48.6685 41.1383 48.7112 41.1178 48.7497C41.0972 48.7882 41.0681 48.8214 41.0325 48.8468C40.9777 48.8752 40.9168 48.8905 40.8549 48.8911Z" fill="#31A8FF"></path><path d="M43.7838 34.1868H47.0086C47.0961 34.1876 47.181 34.2169 47.2505 34.2703C47.3199 34.3237 47.37 34.3983 47.3931 34.4827C47.4635 34.6123 47.5134 34.7521 47.5411 34.8969C47.5824 35.0872 47.612 35.2799 47.6299 35.4739C47.6493 35.6809 47.6592 35.9028 47.6595 36.1395C48.2125 35.4955 48.8794 34.959 49.6269 34.5567C50.4665 34.1027 51.4092 33.8734 52.3636 33.891C52.3997 33.8859 52.4366 33.8892 52.4713 33.9007C52.506 33.9123 52.5375 33.9318 52.5633 33.9576C52.5891 33.9834 52.6086 34.0149 52.6201 34.0496C52.6317 34.0843 52.635 34.1211 52.6298 34.1573V37.7371C52.6298 37.8754 52.5312 37.9444 52.334 37.9442C51.1422 37.8705 49.9501 38.0835 48.8577 38.5656C48.4864 38.7261 48.1498 38.9572 47.8666 39.246V48.6246C47.8666 48.8022 47.7877 48.8909 47.6299 48.8909H44.05C44.0098 48.8966 43.9688 48.893 43.9303 48.8801C43.8918 48.8673 43.8568 48.8457 43.8281 48.8169C43.7994 48.7882 43.7777 48.7532 43.7649 48.7147C43.7521 48.6762 43.7484 48.6352 43.7542 48.595V38.4176C43.7542 37.9839 43.7493 37.5254 43.7394 37.0419C43.7292 36.5588 43.7144 36.0805 43.695 35.607C43.6819 35.2005 43.6424 34.7953 43.5767 34.394C43.5693 34.3653 43.5695 34.3353 43.5773 34.3067C43.5851 34.2782 43.6002 34.2522 43.6211 34.2312C43.642 34.2103 43.668 34.1952 43.6965 34.1874C43.7251 34.1796 43.7551 34.1795 43.7838 34.1868Z" fill="#31A8FF"></path></g></g><defs><clipPath id="clip0_1182_2333"><rect width="44.6125" height="43" fill="white" transform="translate(17.6937 18.5)"></rect></clipPath></defs></svg>