<svg xmlns="http://www.w3.org/2000/svg" width="80" height="80" viewBox="0 0 80 80" fill="none">
  <path d="M0 38.4C0 24.9587 0 18.2381 2.61584 13.1042C4.9168 8.58834 8.58834 4.9168 13.1042 2.61584C18.2381 0 24.9587 0 38.4 0H41.6C55.0413 0 61.7619 0 66.8958 2.61584C71.4117 4.9168 75.0832 8.58834 77.3842 13.1042C80 18.2381 80 24.9587 80 38.4V41.6C80 55.0413 80 61.7619 77.3842 66.8958C75.0832 71.4117 71.4117 75.0832 66.8958 77.3842C61.7619 80 55.0413 80 41.6 80H38.4C24.9587 80 18.2381 80 13.1042 77.3842C8.58834 75.0832 4.9168 71.4117 2.61584 66.8958C0 61.7619 0 55.0413 0 41.6V38.4Z" fill="#191919"></path>
  <g clip-path="url(#clip0_1182_2490)">
    <mask id="mask0_1182_2490" style="mask-type:alpha" maskUnits="userSpaceOnUse" x="16" y="16" width="48" height="48">
      <path d="M40 64C53.2548 64 64 53.2548 64 40C64 26.7452 53.2548 16 40 16C26.7452 16 16 26.7452 16 40C16 53.2548 26.7452 64 40 64Z" fill="black"></path>
    </mask>
    <g mask="url(#mask0_1182_2490)">
      <path d="M40 63.1998C52.813 63.1998 63.2 52.8128 63.2 39.9998C63.2 27.1868 52.813 16.7998 40 16.7998C27.187 16.7998 16.8 27.1868 16.8 39.9998C16.8 52.8128 27.187 63.1998 40 63.1998Z" fill="black" stroke="white" stroke-width="1.6"></path>
      <path d="M55.8688 58.0052L34.4379 30.3999H30.4V49.5919H33.6303V34.5022L53.3331 59.9586C54.2222 59.3636 55.0691 58.7106 55.8688 58.0052Z" fill="url(#paint0_linear_1182_2490)"></path>
      <path d="M49.8666 30.3999H46.6666V49.5999H49.8666V30.3999Z" fill="url(#paint1_linear_1182_2490)"></path>
    </g>
  </g>
  <defs>
    <linearGradient id="paint0_linear_1182_2490" x1="45.0667" y1="47.0666" x2="54.5334" y2="58.7999" gradientUnits="userSpaceOnUse">
      <stop stop-color="white"></stop>
      <stop offset="1" stop-color="white" stop-opacity="0"></stop>
    </linearGradient>
    <linearGradient id="paint1_linear_1182_2490" x1="48.2666" y1="30.3999" x2="48.213" y2="44.4999" gradientUnits="userSpaceOnUse">
      <stop stop-color="white"></stop>
      <stop offset="1" stop-color="white" stop-opacity="0"></stop>
    </linearGradient>
    <clipPath id="clip0_1182_2490">
      <rect width="48" height="48" fill="white" transform="translate(16 16)"></rect>
    </clipPath>
  </defs>
</svg>