<svg xmlns="http://www.w3.org/2000/svg" width="80" height="80" viewBox="0 0 80 80" fill="none"><path d="M0 38.4C0 24.9587 0 18.2381 2.61584 13.1042C4.9168 8.58834 8.58834 4.9168 13.1042 2.61584C18.2381 0 24.9587 0 38.4 0H41.6C55.0413 0 61.7619 0 66.8958 2.61584C71.4117 4.9168 75.0832 8.58834 77.3842 13.1042C80 18.2381 80 24.9587 80 38.4V41.6C80 55.0413 80 61.7619 77.3842 66.8958C75.0832 71.4117 71.4117 75.0832 66.8958 77.3842C61.7619 80 55.0413 80 41.6 80H38.4C24.9587 80 18.2381 80 13.1042 77.3842C8.58834 75.0832 4.9168 71.4117 2.61584 66.8958C0 61.7619 0 55.0413 0 41.6V38.4Z" fill="#191919"></path><g clip-path="url(#clip0_1182_2293)"><mask id="mask0_1182_2293" style="mask-type:luminance" maskUnits="userSpaceOnUse" x="15" y="16" width="50" height="48"><path d="M64.3308 16H15.1V64H64.3308V16Z" fill="white"></path></mask><g mask="url(#mask0_1182_2293)"><path d="M55.6128 16H23.8179C19.0031 16 15.1 19.9032 15.1 24.7179V55.2821C15.1 60.0968 19.0031 64 23.8179 64H55.6128C60.4276 64 64.3308 60.0968 64.3308 55.2821V24.7179C64.3308 19.9032 60.4276 16 55.6128 16Z" fill="#001E36"></path><path d="M26.1855 49.6602V28.5569C26.1855 28.4031 26.2515 28.3257 26.3837 28.3257C26.7356 28.3257 27.0568 28.3205 27.5414 28.3092C28.0255 28.2983 28.5484 28.2873 29.1101 28.2762C29.6716 28.2653 30.2661 28.2543 30.8936 28.2431C31.521 28.2323 32.1429 28.2268 32.7594 28.2266C34.4324 28.2266 35.8415 28.4357 36.9867 28.8541C38.0198 29.2035 38.9618 29.7789 39.7444 30.5384C40.4078 31.1967 40.9205 31.9911 41.247 32.8667C41.556 33.7189 41.7125 34.6188 41.7095 35.5253C41.7095 37.287 41.3021 38.7401 40.4875 39.8846C39.6675 41.0339 38.5148 41.9042 37.1849 42.3781C35.7978 42.8957 34.2564 43.0712 32.5613 43.0712C32.0768 43.0712 31.7355 43.0657 31.5375 43.0547C31.3394 43.0438 31.0422 43.0383 30.6459 43.0382V49.6272C30.6516 49.6676 30.6479 49.7088 30.635 49.7475C30.6221 49.7862 30.6004 49.8213 30.5715 49.8501C30.5427 49.879 30.5075 49.9007 30.4688 49.9136C30.4301 49.9265 30.389 49.9302 30.3486 49.9245H26.4167C26.2624 49.9245 26.1855 49.8367 26.1855 49.6602ZM30.6459 32.2887V39.1718C30.9317 39.194 31.1959 39.205 31.4384 39.2048H32.5283C33.3302 39.2022 34.1268 39.075 34.8897 38.8278C35.5439 38.6335 36.1286 38.2552 36.5739 37.738C37.0032 37.2318 37.2179 36.5273 37.218 35.6244C37.2354 34.9855 37.0692 34.3551 36.739 33.8079C36.392 33.2788 35.8904 32.8695 35.3024 32.6355C34.5348 32.3372 33.7148 32.1968 32.8916 32.2227C32.3631 32.2227 31.8953 32.2282 31.488 32.2392C31.0803 32.2506 30.7997 32.2671 30.6459 32.2887Z" fill="#31A8FF"></path><path d="M54.4787 37.9205C53.858 37.6016 53.197 37.3683 52.5137 37.227C51.7607 37.0542 50.9909 36.9656 50.2184 36.9627C49.8005 36.9514 49.3832 37.0015 48.9799 37.1114C48.7232 37.1685 48.495 37.3148 48.3359 37.5242C48.2282 37.6917 48.1709 37.8865 48.1708 38.0856C48.1768 38.2788 48.2465 38.4645 48.3689 38.614C48.5618 38.8397 48.7976 39.0249 49.0624 39.159C49.5333 39.4125 50.0185 39.6386 50.5155 39.836C51.6239 40.207 52.683 40.7116 53.6695 41.3386C54.3415 41.7628 54.8976 42.3472 55.2878 43.0395C55.6159 43.695 55.7802 44.4202 55.7667 45.1531C55.7864 46.1209 55.5099 47.0716 54.9741 47.8777C54.4004 48.6961 53.6037 49.3323 52.6787 49.7106C51.6766 50.1508 50.4381 50.371 48.9634 50.3712C48.0265 50.3806 47.0912 50.2921 46.1727 50.107C45.4491 49.9743 44.7446 49.7524 44.0756 49.4464C44.0033 49.4092 43.9433 49.3521 43.9023 49.2819C43.8614 49.2117 43.8413 49.1313 43.8444 49.0501V45.4834C43.8404 45.4485 43.846 45.4131 43.8605 45.3811C43.8751 45.3491 43.8981 45.3217 43.927 45.3017C43.9554 45.2857 43.988 45.2787 44.0204 45.2817C44.0528 45.2846 44.0836 45.2974 44.1086 45.3183C44.8988 45.7842 45.7567 46.124 46.6515 46.3255C47.4403 46.5232 48.2493 46.6285 49.0624 46.6393C49.8329 46.6393 50.3998 46.5402 50.7632 46.342C50.9274 46.2669 51.0662 46.1458 51.1629 45.9934C51.2597 45.841 51.3101 45.6639 51.3082 45.4834C51.3082 45.1975 51.1431 44.9223 50.8128 44.6577C50.4826 44.3935 49.8111 44.0743 48.7982 43.6999C47.7612 43.339 46.778 42.8391 45.8754 42.2139C45.2299 41.7649 44.6983 41.1711 44.3232 40.48C43.9985 39.8292 43.8342 39.1101 43.8444 38.3829C43.8425 37.509 44.0826 36.6517 44.5379 35.9059C45.057 35.0847 45.8025 34.4309 46.6846 34.0235C47.6532 33.5394 48.8641 33.2973 50.3175 33.2969C51.1686 33.2901 52.0189 33.3508 52.8604 33.4785C53.4698 33.5559 54.0656 33.717 54.6308 33.9574C54.6756 33.9703 54.7169 33.9934 54.7512 34.0249C54.7856 34.0564 54.8123 34.0955 54.8289 34.1391C54.8513 34.2197 54.8624 34.303 54.862 34.3867V37.7223C54.8643 37.7611 54.8563 37.7999 54.839 37.8346C54.8216 37.8694 54.7953 37.899 54.7629 37.9205C54.7188 37.9425 54.6701 37.9539 54.6208 37.9539C54.5715 37.9539 54.5228 37.9425 54.4787 37.9205Z" fill="#31A8FF"></path></g></g><defs><clipPath id="clip0_1182_2293"><rect width="49.8" height="48" fill="white" transform="translate(15.1 16)"></rect></clipPath></defs></svg>