<svg xmlns="http://www.w3.org/2000/svg" xmlns:xlink="http://www.w3.org/1999/xlink" id="Layer_1" version="1.1" viewBox="0 0 80 80">
  <defs>
    <style>
      .st0 {
        fill: none;
      }

      .st1 {
        mask: url(#mask);
      }

      .st2 {
        fill: #fff;
      }

      .st3 {
        fill: #191919;
      }

      .st4 {
        fill: #d04727;
      }

      .st5 {
        clip-path: url(#clippath);
      }
    </style>
    <clipPath id="clippath">
      <rect class="st0" x="15.1" y="16" width="49.8" height="48"></rect>
    </clipPath>
    <mask id="mask" x="15.1" y="16" width="49.2" height="48" maskUnits="userSpaceOnUse">
      <g id="mask0_1191_2604">
        <path class="st2" d="M64.3,16H15.1v48h49.2V16Z"></path>
      </g>
    </mask>
  </defs>
  <path class="st3" d="M0,38.4c0-13.4,0-20.2,2.6-25.3,2.3-4.5,6-8.2,10.5-10.5C18.2,0,25,0,38.4,0h3.2C55,0,61.8,0,66.9,2.6c4.5,2.3,8.2,6,10.5,10.5,2.6,5.1,2.6,11.9,2.6,25.3v3.2c0,13.4,0,20.2-2.6,25.3-2.3,4.5-6,8.2-10.5,10.5-5.1,2.6-11.9,2.6-25.3,2.6h-3.2c-13.4,0-20.2,0-25.3-2.6-4.5-2.3-8.2-6-10.5-10.5-2.6-5.1-2.6-11.9-2.6-25.3v-3.2Z"></path>
  <g class="st5">
    <g class="st1">
      <path class="st2" d="M55.6,16h-31.8c-4.8,0-8.7,3.9-8.7,8.7v30.6c0,4.8,3.9,8.7,8.7,8.7h31.8c4.8,0,8.7-3.9,8.7-8.7v-30.6c0-4.8-3.9-8.7-8.7-8.7Z"></path>
    </g>
  </g>
  <g id="powerpoint">
    <path class="st4" d="M40.7,27.2h1.7v2.7c3.2,0,6.4,0,9.6,0,.7,0,1.2.5,1.2,1.2,0,5.6,0,11.2,0,16.7,0,.6,0,1.3-.3,1.8-.4.3-1,.3-1.5.3-3,0-6,0-9,0v3h-1.9c-4.5-.8-9.1-1.6-13.7-2.4,0-7,0-13.9,0-20.9,4.6-.8,9.2-1.6,13.8-2.4Z"></path>
    <path class="st2" d="M42.4,30.7h9.8v18.2h-9.8v-2.4h7.2v-1.2h-7.2v-1.5h7.2v-1.2h-7.2c0-.6,0-1.2,0-1.8,1.2.4,2.5.4,3.6-.4,1.1-.7,1.7-2,1.8-3.3-1.3,0-2.6,0-3.9,0,0-1.3,0-2.6,0-3.9-.5,0-1,.2-1.5.3v-3Z"></path>
    <path class="st4" d="M44.5,32.8c2.1,0,3.8,1.8,3.9,3.9-1.3,0-2.6,0-3.9,0,0-1.3,0-2.6,0-3.9Z"></path>
    <path class="st2" d="M31.7,35.1c1.6,0,3.6-.6,4.9.6,1.3,1.6.9,4.4-1,5.4-.7.3-1.5.3-2.2.3,0,1.2,0,2.3,0,3.5-.6,0-1.2-.1-1.8-.1,0-3.2,0-6.4,0-9.6Z"></path>
    <path class="st4" d="M33.4,36.7c.6,0,1.3-.1,1.7.4.3.6.3,1.4,0,2-.3.6-1.1.6-1.7.6,0-1,0-2,0-3Z"></path>
  </g>
</svg>