<svg xmlns="http://www.w3.org/2000/svg" width="80" height="80" viewBox="0 0 80 80" fill="none">
  <path d="M0 38.4C0 24.9587 0 18.2381 2.61584 13.1042C4.9168 8.58834 8.58834 4.9168 13.1042 2.61584C18.2381 0 24.9587 0 38.4 0H41.6C55.0413 0 61.7619 0 66.8958 2.61584C71.4117 4.9168 75.0832 8.58834 77.3842 13.1042C80 18.2381 80 24.9587 80 38.4V41.6C80 55.0413 80 61.7619 77.3842 66.8958C75.0832 71.4117 71.4117 75.0832 66.8958 77.3842C61.7619 80 55.0413 80 41.6 80H38.4C24.9587 80 18.2381 80 13.1042 77.3842C8.58834 75.0832 4.9168 71.4117 2.61584 66.8958C0 61.7619 0 55.0413 0 41.6V38.4Z" fill="#191919"></path>
  <g clip-path="url(#clip0_1182_2481)">
    <path d="M57.3648 31.5419C56.7913 31.3451 56.2128 31.1628 55.6301 30.9951C55.728 30.5951 55.8181 30.2 55.8981 29.8118C57.2114 23.4368 56.3528 18.301 53.4204 16.6101C50.6088 14.989 46.0107 16.6793 41.3669 20.7208C40.9093 21.1198 40.4618 21.5303 40.0248 21.952C39.7323 21.6716 39.4347 21.3967 39.132 21.1273C34.265 16.8061 29.3867 14.9848 26.4575 16.6806C23.6484 18.3067 22.8166 23.1347 23.9989 29.1764C24.1166 29.7748 24.2494 30.37 24.3972 30.9616C23.7067 31.1579 23.0404 31.3667 22.4027 31.589C16.6966 33.5785 13.0526 36.6962 13.0526 39.9301C13.0526 43.2701 16.9646 46.6202 22.9078 48.6515C23.3896 48.8156 23.8754 48.9675 24.3648 49.1073C24.2059 49.7445 24.0648 50.386 23.9417 51.0311C22.8145 56.968 23.6947 61.6819 26.4962 63.2976C29.3897 64.9663 34.2461 63.2513 38.9747 59.1177C39.3582 58.7816 39.7332 58.436 40.0993 58.0812C40.5725 58.5378 41.0583 58.981 41.5562 59.4105C46.1368 63.352 50.6606 64.9435 53.4594 63.3233C56.3501 61.6499 57.2897 56.5859 56.0699 50.4248C55.9738 49.9421 55.866 49.4619 55.7467 48.9844C56.0878 48.8833 56.4225 48.7793 56.7488 48.6711C62.9274 46.6242 66.9473 43.3147 66.9473 39.9301C66.9473 36.6844 63.1857 33.5456 57.3648 31.5419ZM56.0248 46.4859C55.7301 46.5833 55.4278 46.6774 55.1196 46.769C54.4375 44.6096 53.517 42.3136 52.3905 39.9412C53.4655 37.6254 54.3505 35.3587 55.0135 33.2134C55.5648 33.373 56.0998 33.5412 56.6156 33.7187C61.6029 35.4358 64.645 37.9741 64.645 39.9301C64.645 42.0134 61.3596 44.7181 56.0248 46.4859ZM53.8114 50.872C54.3507 53.5962 54.4276 56.0593 54.0703 57.985C53.7495 59.7153 53.104 60.8688 52.3057 61.3309C50.6073 62.3141 46.9751 61.0362 43.0579 57.6652C42.5948 57.2659 42.1429 56.8538 41.7027 56.4294C43.2215 54.7686 44.7391 52.8379 46.2204 50.6934C48.8259 50.4623 51.2873 50.0842 53.5196 49.5682C53.6295 50.0118 53.7271 50.4467 53.8114 50.872ZM31.4265 61.161C29.7671 61.7469 28.4455 61.7638 27.6465 61.3031C25.9465 60.3227 25.2398 56.5376 26.2038 51.4606C26.3184 50.8607 26.4496 50.264 26.5972 49.6713C28.8048 50.1598 31.2484 50.5109 33.86 50.7227C35.3513 52.821 36.9128 54.7496 38.4865 56.4385C38.1521 56.7621 37.8097 57.0774 37.4598 57.3842C35.3686 59.212 33.2732 60.5088 31.4265 61.161ZM23.6526 46.473C21.0246 45.5747 18.8543 44.4073 17.3667 43.1334C16.0299 41.9888 15.3551 40.8522 15.3551 39.9301C15.3551 37.9675 18.2808 35.4644 23.1606 33.7631C23.7528 33.5568 24.3726 33.3621 25.0158 33.1793C25.6903 35.373 26.5749 37.6667 27.6425 39.9861C26.561 42.3398 25.6638 44.6701 24.9827 46.8896C24.536 46.7617 24.0925 46.6228 23.6526 46.473ZM26.2585 28.7341C25.2457 23.5579 25.9183 19.6532 27.6111 18.6732C29.4141 17.6294 33.401 19.1176 37.6033 22.849C37.8774 23.0929 38.147 23.3417 38.412 23.5953C36.8461 25.2768 35.2989 27.1911 33.8208 29.277C31.2861 29.512 28.8598 29.8892 26.629 30.3947C26.4916 29.8444 26.368 29.2906 26.2585 28.7341ZM49.5063 34.4747C48.9794 33.5646 48.433 32.6659 47.8673 31.7793C49.5869 31.9968 51.2345 32.2854 52.7817 32.6383C52.3172 34.1271 51.7383 35.6835 51.0568 37.2793C50.5587 36.3342 50.0418 35.3992 49.5063 34.4747ZM40.0259 25.2408C41.0878 26.3913 42.1514 27.6758 43.1975 29.0694C41.0753 28.9692 38.9497 28.9688 36.8276 29.0682C37.8747 27.6873 38.9473 26.4046 40.0259 25.2408ZM30.4846 34.4905C29.9558 35.4075 29.4485 36.3367 28.9631 37.2774C28.2928 35.6873 27.7191 34.1238 27.2507 32.6139C28.7884 32.2699 30.4282 31.9886 32.1368 31.7751C31.5649 32.6671 31.014 33.5726 30.4846 34.4905ZM32.1859 48.2488C30.4206 48.0518 28.7562 47.785 27.2189 47.4503C27.6947 45.9134 28.281 44.3166 28.9659 42.6924C29.4532 43.6338 29.9626 44.5636 30.4937 45.481C31.0398 46.4242 31.6052 47.348 32.1859 48.2488ZM40.0895 54.7814C38.9981 53.6042 37.9097 52.3017 36.8467 50.9008C37.8787 50.9412 38.9307 50.9619 40 50.9619C41.0985 50.9619 42.1844 50.9372 43.2532 50.8896C42.2038 52.3158 41.1442 53.6202 40.0895 54.7814ZM51.0785 42.6094C51.7989 44.2515 52.4061 45.84 52.8882 47.3505C51.3257 47.7071 49.6385 47.9943 47.8608 48.2075C48.4305 47.3045 48.9821 46.3902 49.5153 45.4652C50.0575 44.525 50.5787 43.5728 51.0785 42.6094ZM47.521 44.3149C46.7047 45.7331 45.8424 47.1244 44.9356 48.4865C43.2929 48.6028 41.6467 48.6606 40 48.6598C38.3227 48.6598 36.6913 48.6075 35.1204 48.5056C34.1899 47.1467 33.3112 45.753 32.4861 44.3275C31.6649 42.9097 30.898 41.4611 30.1867 39.985C30.8962 38.5086 31.6609 37.0593 32.4793 35.6404L32.4791 35.6406C33.2972 34.2213 34.169 32.8335 35.0924 31.4804C36.6951 31.3591 38.3387 31.296 39.9998 31.296C41.6684 31.296 43.3143 31.3598 44.9166 31.4819C45.8307 32.833 46.6969 34.216 47.5135 35.6282C48.3346 37.044 49.1095 38.4862 49.8368 39.9524C49.1169 41.4336 48.3445 42.8887 47.521 44.3149ZM52.2705 18.6046C54.0751 19.6454 54.777 23.8427 53.6431 29.3469C53.5707 29.6981 53.4895 30.0558 53.401 30.4185C51.1648 29.9023 48.7368 29.5185 46.1947 29.28C44.7139 27.1711 43.1794 25.2539 41.6389 23.5941C42.0426 23.2049 42.456 22.8258 42.8785 22.4572C46.8575 18.9947 50.5762 17.6275 52.2705 18.6046ZM40 35.1174C42.6579 35.1174 44.8126 37.2722 44.8126 39.9301C44.8126 42.588 42.6579 44.7427 40 44.7427C37.3421 44.7427 35.1873 42.588 35.1873 39.9301C35.1873 37.2722 37.3421 35.1174 40 35.1174Z" fill="#00D8FF"></path>
  </g>
  <defs>
    <clipPath id="clip0_1182_2481">
      <rect width="53.8947" height="48" fill="white" transform="translate(13.0526 16)"></rect>
    </clipPath>
  </defs>
</svg>