<svg xmlns="http://www.w3.org/2000/svg" id="Layer_1" version="1.1" viewBox="0 0 80 80">
  <defs>
    <style>
      .st0 {
        fill: #fff;
      }

      .st1 {
        fill: #191919;
      }
    </style>
  </defs>
  <path class="st1" d="M0,38.4c0-13.4,0-20.2,2.6-25.3,2.3-4.5,6-8.2,10.5-10.5C18.2,0,25,0,38.4,0h3.2C55,0,61.8,0,66.9,2.6c4.5,2.3,8.2,6,10.5,10.5,2.6,5.1,2.6,11.9,2.6,25.3v3.2c0,13.4,0,20.2-2.6,25.3-2.3,4.5-6,8.2-10.5,10.5-5.1,2.6-11.9,2.6-25.3,2.6h-3.2c-13.4,0-20.2,0-25.3-2.6-4.5-2.3-8.2-6-10.5-10.5C0,61.8,0,55,0,41.6,0,41.6,0,38.4,0,38.4Z"></path>
  <path class="st0" d="M47.2,53.4c-3.3.3-6-3.5-8.1-5.4-1.1,7.6-12.5,6.9-12.5-.8,0-3.2,0-11.1,0-14.3s.3-2.3.9-3.2c1.1-1.9,3.2-3.1,5.4-3,3.3,0,11.1,0,14.3,0,7.7,0,8.4,11.5.8,12.5l3.6,3.6c4,3.7,1,10.9-4.4,10.7ZM45.4,48.9c2.2,2.3,5.8-1.3,3.5-3.5l-6.3-6.3h-3.5v3.5l5.4,5.4.8.8ZM30.4,47.1c0,3.2,5,3.2,5,0v-14.3c0-1.6-1.6-2.9-3.2-2.4,0,0-.1,0-.2,0-1,.4-1.6,1.3-1.6,2.4v14.2ZM47.2,35.3c3.2,0,3.2-5,0-5h-8.5c.6,1.4.5,3.5.5,5h8Z"></path>
</svg>