<svg xmlns="http://www.w3.org/2000/svg" width="80" height="80" viewBox="0 0 80 80" fill="none"><path d="M0 38.4C0 24.9587 0 18.2381 2.61584 13.1042C4.9168 8.58834 8.58834 4.9168 13.1042 2.61584C18.2381 0 24.9587 0 38.4 0H41.6C55.0413 0 61.7619 0 66.8958 2.61584C71.4117 4.9168 75.0832 8.58834 77.3842 13.1042C80 18.2381 80 24.9587 80 38.4V41.6C80 55.0413 80 61.7619 77.3842 66.8958C75.0832 71.4117 71.4117 75.0832 66.8958 77.3842C61.7619 80 55.0413 80 41.6 80H38.4C24.9587 80 18.2381 80 13.1042 77.3842C8.58834 75.0832 4.9168 71.4117 2.61584 66.8958C0 61.7619 0 55.0413 0 41.6V38.4Z" fill="#191919"></path><g clip-path="url(#clip0_1182_2264)"><path d="M25.0055 17.5796L39.9465 16L54.8875 17.5796L66.4547 33.1076L39.9465 63.9761L13.4382 33.1076L25.0055 17.5796Z" fill="#FDB300"></path><path d="M24.1754 33.1074L39.9465 63.976L13.4382 33.1074H24.1754Z" fill="#EA6C00"></path><path d="M55.7175 33.1074L39.9464 63.976L66.4547 33.1074H55.7175Z" fill="#EA6C00"></path><path d="M24.1754 33.1074H55.7176L39.9465 63.976L24.1754 33.1074Z" fill="#FDAD00"></path><path d="M39.9465 16L25.0054 17.5796L24.1754 33.1075L39.9465 16Z" fill="#FDD231"></path><path d="M39.9464 16L54.8874 17.5796L55.7175 33.1075L39.9464 16Z" fill="#FDD231"></path><path d="M66.4547 33.1076L54.8874 17.5796L55.7175 33.1076H66.4547Z" fill="#FDAD00"></path><path d="M13.4382 33.1076L25.0054 17.5796L24.1754 33.1076H13.4382Z" fill="#FDAD00"></path><path d="M39.9465 16L24.1754 33.1075H55.7176L39.9465 16Z" fill="#FEEEB7"></path></g><defs><clipPath id="clip0_1182_2264"><rect width="53.1236" height="48" fill="white" transform="translate(13.4382 16)"></rect></clipPath></defs></svg>