<svg xmlns="http://www.w3.org/2000/svg" width="80" height="80" viewBox="0 0 80 80" fill="none">
  <path d="M0 38.4C0 24.9587 0 18.2381 2.61584 13.1042C4.9168 8.58834 8.58834 4.9168 13.1042 2.61584C18.2381 0 24.9587 0 38.4 0H41.6C55.0413 0 61.7619 0 66.8958 2.61584C71.4117 4.9168 75.0832 8.58834 77.3842 13.1042C80 18.2381 80 24.9587 80 38.4V41.6C80 55.0413 80 61.7619 77.3842 66.8958C75.0832 71.4117 71.4117 75.0832 66.8958 77.3842C61.7619 80 55.0413 80 41.6 80H38.4C24.9587 80 18.2381 80 13.1042 77.3842C8.58834 75.0832 4.9168 71.4117 2.61584 66.8958C0 61.7619 0 55.0413 0 41.6V38.4Z" fill="#191919"></path>
  <g clip-path="url(#clip0_1191_2677)">
    <path d="M20.6333 20C20.5661 20.0011 20.5001 20.0173 20.4401 20.0474C20.3801 20.0775 20.3276 20.1207 20.2866 20.1739C20.2456 20.2271 20.2171 20.2888 20.2033 20.3545C20.1894 20.4202 20.1906 20.4882 20.2066 20.5534L25.0299 40.08C25.0338 40.1027 25.0393 40.1249 25.0466 40.1467L29.8633 59.66C29.8821 59.7364 29.9207 59.8064 29.9753 59.863C30.0299 59.9196 30.0984 59.9608 30.174 59.9825C30.2496 60.0041 30.3295 60.0054 30.4058 59.9863C30.482 59.9671 30.5519 59.9282 30.6083 59.8734L59.6699 31.9167C59.7262 31.8623 59.7671 31.794 59.7887 31.7187C59.8102 31.6435 59.8116 31.5639 59.7927 31.4879C59.7738 31.412 59.7352 31.3423 59.6809 31.2859C59.6266 31.2296 59.5585 31.1884 59.4833 31.1667L49.8433 28.3884C49.7806 28.3527 49.7103 28.3327 49.6383 28.33L30.6333 22.8584C30.5612 22.8138 30.478 22.7907 30.3933 22.7917L20.7599 20.0167C20.7187 20.0051 20.6761 19.9995 20.6333 20ZM21.2566 21.09L29.5166 23.4667L23.3166 29.44L21.2566 21.09ZM31.0166 23.9L39.1233 26.2334L33.0399 32.0917L31.0166 23.9ZM30.1466 24.1L32.1749 32.31L24.0466 29.9767L30.1466 24.1ZM40.6133 26.6634L48.7433 29.0034L42.6399 34.8867L40.6133 26.6634ZM39.7466 26.88L41.7599 35.0467L33.6716 32.7267L39.7466 26.88ZM50.2466 29.4367L58.4916 31.81L52.2999 37.7667L50.2466 29.4367ZM49.3733 29.6367L51.3983 37.8467L43.2716 35.5167L49.3733 29.6367ZM23.6533 30.7967L31.9266 33.17L25.7166 39.1467L23.6533 30.7967ZM33.4116 33.5834L41.5399 35.9167L35.4399 41.795L33.4116 33.5834ZM32.5483 33.8117L34.6083 42.1734L26.3366 39.7867L32.5483 33.8117ZM43.0049 36.37L51.2799 38.745L45.0633 44.7217L43.0049 36.37ZM42.1383 36.5817L44.1966 44.935L35.9333 42.5517L42.1383 36.5817ZM26.0883 40.645L34.2099 42.9884L28.1166 48.86L26.0883 40.645ZM35.8449 43.4567L43.9499 45.795L37.8699 51.645L35.8449 43.4567ZM34.9449 43.5234L36.9683 51.735L28.8433 49.4017L34.9449 43.5234ZM28.4516 50.2234L36.8466 52.6267L30.5433 58.69L28.4516 50.2234Z" fill="white"></path>
  </g>
  <defs>
    <clipPath id="clip0_1191_2677">
      <rect width="40" height="40" fill="white" transform="translate(20 20)"></rect>
    </clipPath>
  </defs>
</svg>