<svg xmlns="http://www.w3.org/2000/svg" width="80" height="80" viewBox="0 0 80 80" fill="none">
  <path d="M0 38.4C0 24.9587 0 18.2381 2.61584 13.1042C4.9168 8.58834 8.58834 4.9168 13.1042 2.61584C18.2381 0 24.9587 0 38.4 0H41.6C55.0413 0 61.7619 0 66.8958 2.61584C71.4117 4.9168 75.0832 8.58834 77.3842 13.1042C80 18.2381 80 24.9587 80 38.4V41.6C80 55.0413 80 61.7619 77.3842 66.8958C75.0832 71.4117 71.4117 75.0832 66.8958 77.3842C61.7619 80 55.0413 80 41.6 80H38.4C24.9587 80 18.2381 80 13.1042 77.3842C8.58834 75.0832 4.9168 71.4117 2.61584 66.8958C0 61.7619 0 55.0413 0 41.6V38.4Z" fill="#191919"></path>
  <path fill-rule="evenodd" clip-rule="evenodd" d="M65.3334 24L49.1664 56H33.9808L40.7467 42.7379H40.4432C34.8614 50.0744 26.5331 54.904 14.6667 56V42.9213C14.6667 42.9213 22.2579 42.4675 26.7206 37.7168H14.6667V24.0002H28.214V35.2819L28.518 35.2808L34.0539 24.0002H44.2995V35.2104L44.6035 35.2099L50.3472 24H65.3334Z" fill="#146EF5"></path>
</svg>