<svg xmlns="http://www.w3.org/2000/svg" width="80" height="80" viewBox="0 0 80 80" fill="none">
  <path d="M0 38.4C0 24.9587 0 18.2381 2.61584 13.1042C4.9168 8.58834 8.58834 4.9168 13.1042 2.61584C18.2381 0 24.9587 0 38.4 0H41.6C55.0413 0 61.7619 0 66.8958 2.61584C71.4117 4.9168 75.0832 8.58834 77.3842 13.1042C80 18.2381 80 24.9587 80 38.4V41.6C80 55.0413 80 61.7619 77.3842 66.8958C75.0832 71.4117 71.4117 75.0832 66.8958 77.3842C61.7619 80 55.0413 80 41.6 80H38.4C24.9587 80 18.2381 80 13.1042 77.3842C8.58834 75.0832 4.9168 71.4117 2.61584 66.8958C0 61.7619 0 55.0413 0 41.6V38.4Z" fill="#191919"></path>
  <g clip-path="url(#clip0_1182_2442)">
    <path d="M19.412 39.9991C19.412 48.1486 24.148 55.1913 31.0157 58.5288L21.1945 31.6201C20.0522 34.1807 19.412 37.0143 19.412 39.9991Z" fill="#21759B"></path>
    <path d="M53.8997 38.9606C53.8997 36.4161 52.9857 34.6539 52.2018 33.2824C51.1582 31.5864 50.1799 30.1502 50.1799 28.4543C50.1799 26.5617 51.6154 24.7999 53.6372 24.7999C53.7285 24.7999 53.8151 24.8113 53.904 24.8164C50.2411 21.4605 45.3609 19.4116 40.0008 19.4116C32.808 19.4116 26.4798 23.102 22.7984 28.6917C23.2815 28.7062 23.7367 28.7164 24.1234 28.7164C26.2769 28.7164 29.6104 28.4551 29.6104 28.4551C30.7203 28.3897 30.8511 30.0198 29.7424 30.151C29.7424 30.151 28.6271 30.2823 27.386 30.3473L34.8835 52.6484L39.3892 39.1353L36.1815 30.3465C35.0728 30.2815 34.0224 30.1502 34.0224 30.1502C32.913 30.0852 33.043 28.3889 34.1525 28.4543C34.1525 28.4543 37.5526 28.7156 39.5757 28.7156C41.7288 28.7156 45.0627 28.4543 45.0627 28.4543C46.1734 28.3889 46.3038 30.019 45.1947 30.1502C45.1947 30.1502 44.077 30.2815 42.8383 30.3465L50.2787 52.4788L52.3323 45.6163C53.2224 42.7685 53.8997 40.7231 53.8997 38.9606Z" fill="#21759B"></path>
    <path d="M40.362 41.8003L34.1846 59.7505C36.0291 60.2927 37.9796 60.5893 40.0007 60.5893C42.3983 60.5893 44.6976 60.1748 46.8378 59.4222C46.7826 59.334 46.7324 59.2404 46.6913 59.1386L40.362 41.8003Z" fill="#21759B"></path>
    <path d="M58.0665 30.1216C58.1551 30.7774 58.2052 31.4814 58.2052 32.2387C58.2052 34.3279 57.815 36.6766 56.6397 39.6132L50.3507 57.7961C56.4716 54.2268 60.5887 47.5954 60.5887 39.9999C60.5891 36.4204 59.6747 33.0543 58.0665 30.1216Z" fill="#21759B"></path>
    <path d="M40.0008 16C26.7674 16 16.0006 26.766 16.0006 39.9994C16.0006 53.2343 26.7674 64 40.0008 64C53.2338 64 64.0021 53.2343 64.0021 39.9994C64.0018 26.766 53.2338 16 40.0008 16ZM40.0008 62.8999C27.3742 62.8999 17.101 52.6267 17.101 39.9994C17.101 27.3729 27.3739 17.1005 40.0008 17.1005C52.6269 17.1005 62.8993 27.3729 62.8993 39.9994C62.8993 52.6267 52.6269 62.8999 40.0008 62.8999Z" fill="#21759B"></path>
  </g>
  <defs>
    <clipPath id="clip0_1182_2442">
      <rect width="48" height="48" fill="white" transform="translate(16 16)"></rect>
    </clipPath>
  </defs>
</svg>