<svg xmlns="http://www.w3.org/2000/svg" width="80" height="80" viewBox="0 0 80 80" fill="none">
  <path d="M0 38.4C0 24.9587 0 18.2381 2.61584 13.1042C4.9168 8.58834 8.58834 4.9168 13.1042 2.61584C18.2381 0 24.9587 0 38.4 0H41.6C55.0413 0 61.7619 0 66.8958 2.61584C71.4117 4.9168 75.0832 8.58834 77.3842 13.1042C80 18.2381 80 24.9587 80 38.4V41.6C80 55.0413 80 61.7619 77.3842 66.8958C75.0832 71.4117 71.4117 75.0832 66.8958 77.3842C61.7619 80 55.0413 80 41.6 80H38.4C24.9587 80 18.2381 80 13.1042 77.3842C8.58834 75.0832 4.9168 71.4117 2.61584 66.8958C0 61.7619 0 55.0413 0 41.6V38.4Z" fill="#191919"></path>
  <g clip-path="url(#clip0_1193_3572)">
    <path d="M40 64C53.2548 64 64 53.2548 64 40C64 26.7452 53.2548 16 40 16C26.7452 16 16 26.7452 16 40C16 53.2548 26.7452 64 40 64Z" fill="#2D8CFF"></path>
    <path d="M37.5016 37.9048C36.925 37.3282 36.1703 37.0376 35.4062 37.0376C34.6516 37.0376 33.8875 37.3282 33.3109 37.9048C32.1531 39.0626 32.1531 40.9329 33.3109 42.0954C34.4687 43.2532 36.3391 43.2532 37.5016 42.0954C38.6594 40.9423 38.6594 39.0579 37.5016 37.9048ZM36.6672 41.261C35.9687 41.9595 34.8437 41.9595 34.1547 41.261C33.4562 40.5626 33.4562 39.4376 34.1547 38.7485C34.8531 38.0501 35.9781 38.0501 36.6672 38.7485C37.3562 39.4376 37.3562 40.5626 36.6672 41.261Z" fill="white"></path>
    <path d="M43.7266 37.9045C43.15 37.3279 42.3953 37.0373 41.6312 37.0373C40.8765 37.0373 40.1125 37.3279 39.5359 37.9045C38.3781 39.0623 38.3781 40.9326 39.5359 42.0951C40.6937 43.2529 42.5641 43.2529 43.7266 42.0951C44.8797 40.942 44.8797 39.0576 43.7266 37.9045ZM42.8875 41.2607C42.189 41.9592 41.0641 41.9592 40.375 41.2607C39.6766 40.5623 39.6766 39.4373 40.375 38.7482C41.0734 38.0498 42.1984 38.0498 42.8875 38.7482C43.5765 39.4373 43.5765 40.5623 42.8875 41.2607ZM28 42.9482L28.2953 42.9623H32.7391L32.725 42.667C32.6875 42.1795 32.3406 41.8232 31.8531 41.7951L31.5578 41.7811H28.8906L32.4484 38.2232L32.4344 37.9279C32.4109 37.4404 32.05 37.0748 31.5625 37.0561L31.2672 37.042H26.8234L26.8375 37.3373C26.875 37.8201 27.2312 38.1811 27.7094 38.2092L28.0047 38.2232H30.6719L27.1094 41.7764L27.1234 42.0717C27.1562 42.5639 27.5125 42.9201 28 42.9482ZM48.2828 38.8139C48.3859 38.992 48.4141 39.1842 48.4328 39.4045L48.4469 39.6998V41.7717L48.4609 42.067C48.4891 42.5498 48.8453 42.9107 49.3328 42.9389L49.6281 42.9529V39.6951L49.6422 39.3998C49.6562 39.1795 49.6844 38.9779 49.7922 38.7998C49.9984 38.4436 50.3781 38.2139 50.8141 38.2139C51.25 38.2139 51.6344 38.4529 51.8453 38.8045C51.9484 38.9826 51.9766 39.1842 51.9859 39.3951L52 39.6904V41.7623L52.0141 42.0576C52.0422 42.5451 52.3984 42.9014 52.8859 42.9295L53.1812 42.9436V39.3904C53.1812 38.0779 52.1219 37.0186 50.8094 37.0186C50.0969 37.0186 49.4687 37.3279 49.0328 37.8201C48.5969 37.3326 47.9641 37.0186 47.2562 37.0186C46.7687 37.0186 46.3094 37.1686 45.9297 37.4264C45.7 37.1686 45.1797 37.0186 44.8844 37.0186V42.9436L45.1797 42.9295C45.6766 42.9014 46.0328 42.5451 46.0515 42.0576L46.0656 41.7623V39.6904L46.0797 39.3951C46.0937 39.1748 46.1219 38.9732 46.2297 38.8045C46.4359 38.4482 46.8156 38.2139 47.2516 38.2139C47.6969 38.2232 48.0812 38.4576 48.2828 38.8139Z" fill="white"></path>
  </g>
  <defs>
    <clipPath id="clip0_1193_3572">
      <rect width="48" height="48" fill="white" transform="translate(16 16)"></rect>
    </clipPath>
  </defs>
</svg>