<svg xmlns="http://www.w3.org/2000/svg" width="180" height="178" viewBox="0 0 180 178" fill="none"><path fill-rule="evenodd" clip-rule="evenodd" d="M90 90L180 90L180 156C180 169.255 169.063 180.326 156.275 176.84C118.081 166.43 90 131.494 90 90ZM1.26364e-05 90L6.86652e-06 156C5.70774e-06 169.255 10.9366 180.326 23.7249 176.84C61.9193 166.429 90 131.494 90 90L1.26364e-05 90ZM90 -3.09968e-06L156 2.67023e-06C169.255 3.829e-06 180 10.7452 180 24L180 90C130.294 90 90 49.7052 90 -3.09968e-06ZM90 -3.09968e-06L24 -8.86958e-06C10.7452 -1.00284e-05 1.95651e-05 10.7452 1.84063e-05 24L1.26364e-05 90C49.7052 90 90 49.7052 90 -3.09968e-06Z" fill="url(#paint0_radial_1048_804)"></path><defs><radialGradient id="paint0_radial_1048_804" cx="0" cy="0" r="1" gradientUnits="userSpaceOnUse" gradientTransform="translate(90 90) rotate(150) scale(90)"><stop stop-color="#F5576E"></stop><stop offset="1" stop-color="#F094FA"></stop></radialGradient></defs></svg>