<svg xmlns="http://www.w3.org/2000/svg" width="180" height="180" viewBox="0 0 180 180" fill="none"><path fill-rule="evenodd" clip-rule="evenodd" d="M0 90L2.98986e-06 21.6C3.51131e-06 9.67065 9.67065 4.22718e-07 21.6 9.44166e-07L90 3.93403e-06C90 49.7056 49.7056 90 0 90ZM180 90C180 40.2944 139.705 1.69702e-05 90 3.93403e-06V90H0C-4.3454e-06 139.705 40.2943 180 90 180H158.4C170.329 180 180 170.329 180 158.4V90ZM179.965 90H90V180C90 130.306 130.275 90.0189 179.965 90Z" fill="url(#paint0_radial_1048_803)"></path><defs><radialGradient id="paint0_radial_1048_803" cx="0" cy="0" r="1" gradientUnits="userSpaceOnUse" gradientTransform="translate(90 90) rotate(120) scale(90)"><stop stop-color="#F5E380"></stop><stop offset="1" stop-color="#F5FFA6"></stop></radialGradient></defs></svg>