<svg xmlns="http://www.w3.org/2000/svg" width="180" height="180" viewBox="0 0 180 180" fill="none"><path d="M58.5 2.7C58.5 1.20883 57.2905 -0.00650719 55.8009 0.062291C49.0404 0.374534 42.3782 1.85792 36.113 4.45304C29.0155 7.39294 22.5665 11.702 17.1343 17.1342C11.702 22.5665 7.39295 29.0155 4.45305 36.113C1.51315 43.2106 6.94484e-07 50.8177 0 58.5C-6.94483e-07 66.1823 1.51315 73.7894 4.45305 80.887C7.39295 87.9845 11.702 94.4335 17.1343 99.8658C22.5665 105.298 29.0155 109.607 36.113 112.547C42.3782 115.142 49.0404 116.625 55.8009 116.938C57.2905 117.007 58.5 115.791 58.5 114.3L58.5 2.7Z" fill="url(#paint0_radial_1047_1242)"></path><path d="M177.3 58.5C178.791 58.5 180.007 57.2905 179.938 55.8009C179.625 49.0404 178.142 42.3782 175.547 36.113C172.607 29.0155 168.298 22.5665 162.866 17.1343C157.434 11.702 150.985 7.39295 143.887 4.45305C136.789 1.51315 129.182 1.24823e-06 121.5 0C113.818 -1.24823e-06 106.211 1.51314 99.113 4.45304C92.0155 7.39294 85.5665 11.702 80.1342 17.1343C74.702 22.5665 70.3929 29.0155 67.453 36.113C64.8579 42.3782 63.3745 49.0404 63.0623 55.8009C62.9935 57.2905 64.2088 58.5 65.7 58.5L177.3 58.5Z" fill="url(#paint1_radial_1047_1242)"></path><path d="M121.5 177.3C121.5 178.791 122.709 180.007 124.199 179.938C130.96 179.625 137.622 178.142 143.887 175.547C150.985 172.607 157.434 168.298 162.866 162.866C168.298 157.434 172.607 150.985 175.547 143.887C178.487 136.789 180 129.182 180 121.5C180 113.818 178.487 106.211 175.547 99.113C172.607 92.0155 168.298 85.5665 162.866 80.1342C157.434 74.702 150.985 70.3929 143.887 67.453C137.622 64.8579 130.96 63.3745 124.199 63.0623C122.71 62.9935 121.5 64.2088 121.5 65.7L121.5 177.3Z" fill="url(#paint2_radial_1047_1242)"></path><path d="M2.70001 121.5C1.20884 121.5 -0.00649244 122.709 0.0623055 124.199C0.374547 130.96 1.85794 137.622 4.45305 143.887C7.39295 150.985 11.702 157.434 17.1343 162.866C22.5665 168.298 29.0155 172.607 36.113 175.547C43.2106 178.487 50.8177 180 58.5 180C66.1823 180 73.7894 178.487 80.887 175.547C87.9845 172.607 94.4335 168.298 99.8658 162.866C105.298 157.434 109.607 150.985 112.547 143.887C115.142 137.622 116.625 130.96 116.938 124.199C117.007 122.71 115.791 121.5 114.3 121.5L2.70001 121.5Z" fill="url(#paint3_radial_1047_1242)"></path><defs><radialGradient id="paint0_radial_1047_1242" cx="0" cy="0" r="1" gradientUnits="userSpaceOnUse" gradientTransform="translate(90 90) scale(128.571)"><stop stop-color="#A8FF59"></stop><stop offset="1" stop-color="#00D9FC"></stop></radialGradient><radialGradient id="paint1_radial_1047_1242" cx="0" cy="0" r="1" gradientUnits="userSpaceOnUse" gradientTransform="translate(90 90) scale(128.571)"><stop stop-color="#A8FF59"></stop><stop offset="1" stop-color="#00D9FC"></stop></radialGradient><radialGradient id="paint2_radial_1047_1242" cx="0" cy="0" r="1" gradientUnits="userSpaceOnUse" gradientTransform="translate(90 90) scale(128.571)"><stop stop-color="#A8FF59"></stop><stop offset="1" stop-color="#00D9FC"></stop></radialGradient><radialGradient id="paint3_radial_1047_1242" cx="0" cy="0" r="1" gradientUnits="userSpaceOnUse" gradientTransform="translate(90 90) scale(128.571)"><stop stop-color="#A8FF59"></stop><stop offset="1" stop-color="#00D9FC"></stop></radialGradient></defs></svg>