<svg xmlns="http://www.w3.org/2000/svg" width="180" height="180" viewBox="0 0 180 180" fill="none"><path fill-rule="evenodd" clip-rule="evenodd" d="M0 90L5.0354e-06 24C6.04666e-06 10.7452 10.7452 0 24 0H90H156C169.255 0 180 10.7452 180 24V90C130.302 90 90.0117 49.7175 90 0.0215332C89.9883 49.7175 49.6984 90 0 90ZM90 180C90 130.294 130.295 90 180 90V156C180 169.255 169.255 180 156 180H90ZM90 180C90 130.294 49.7056 90 0 90V156C0 169.255 10.7452 180 24 180H90Z" fill="url(#paint0_radial_1207_2236)"></path><defs><radialGradient id="paint0_radial_1207_2236" cx="0" cy="0" r="1" gradientUnits="userSpaceOnUse" gradientTransform="translate(90 90) rotate(-30) scale(90)"><stop stop-color="#2AF598"></stop><stop offset="1" stop-color="#00C2FC"></stop></radialGradient></defs></svg>