<svg xmlns="http://www.w3.org/2000/svg" width="153" height="180" viewBox="0 0 153 180" fill="none"><path d="M126.639 153.64C111.654 168.624 91.9297 177.779 70.9893 179.645C66.5885 180.037 62.9991 176.418 62.9991 172V90.3343C62.9112 106.922 56.2837 122.812 44.5477 134.548C34.6295 144.466 21.7447 150.736 7.9789 152.493C3.59619 153.052 1.59136e-05 149.418 1.53392e-05 145L1.03995e-06 35C4.65601e-07 30.5817 3.59617 26.9476 7.97888 27.5071C21.7447 29.2644 34.6295 35.534 44.5477 45.4523C56.2837 57.1883 62.9112 73.0778 62.9991 89.6657L62.9991 8C62.9991 3.58172 66.5885 -0.0369549 70.9893 0.35514C91.9297 2.22083 111.654 11.3758 126.639 26.3604C143.517 43.2387 152.999 66.1305 152.999 90C152.999 113.869 143.517 136.761 126.639 153.64Z" fill="url(#paint0_linear_1047_1238)"></path><defs><linearGradient id="paint0_linear_1047_1238" x1="10.249" y1="135" x2="152.628" y2="65.1283" gradientUnits="userSpaceOnUse"><stop stop-color="#F3F3F3"></stop><stop offset="1" stop-color="#FAD0C4"></stop></linearGradient></defs></svg>