<svg xmlns="http://www.w3.org/2000/svg" width="180" height="162" viewBox="0 0 180 162" fill="none"><path d="M43.4912 84.9329C46.3478 83.2053 46.3478 78.7947 43.4912 77.0671C18.4936 61.949 1.44397 35.012 0.0873424 4.001C-0.00920769 1.79397 1.79086 0 4 0L41 0C43.2091 0 44.9814 1.79691 45.1751 3.99754C47.198 26.9778 66.4943 45 90 45C113.506 45 132.802 26.9778 134.825 3.99753C135.019 1.7969 136.791 0 139 0L176 0C178.209 0 180.009 1.79397 179.913 4.001C178.556 35.012 161.506 61.949 136.509 77.0671C133.652 78.7947 133.652 83.2053 136.509 84.9329C161.506 100.051 178.556 126.988 179.913 157.999C180.009 160.206 178.209 162 176 162H139C136.791 162 135.019 160.203 134.825 158.002C132.802 135.022 113.506 117 90 117C66.4943 117 47.198 135.022 45.1751 158.002C44.9814 160.203 43.2091 162 41 162H4C1.79086 162 -0.00920769 160.206 0.0873424 157.999C1.44397 126.988 18.4936 100.051 43.4912 84.9329Z" fill="url(#paint0_radial_1047_1240)"></path><defs><radialGradient id="paint0_radial_1047_1240" cx="0" cy="0" r="1" gradientUnits="userSpaceOnUse" gradientTransform="translate(90 81) scale(90 81)"><stop stop-color="#528CFF"></stop><stop offset="1" stop-color="#80D9FF"></stop></radialGradient></defs></svg>