<svg xmlns="http://www.w3.org/2000/svg" id="Layer_1" data-name="Layer 1" viewBox="0 0 200 200"><defs><style>      .cls-1 {        fill: #fff;      }    </style></defs><path class="cls-1" d="M168.34,164.33l-54.89-54.89c17.32-19.51,15.54-49.36-3.97-66.68-19.51-17.32-49.36-15.54-66.68,3.97-17.32,19.51-15.54,49.36,3.97,66.68,17.89,15.88,44.82,15.88,62.71,0l54.89,54.89c1.03,1.1,2.75,1.15,3.85.12.04-.04.08-.08.12-.12,1.06-1.06,1.01-2.84-.05-3.91,0,0,0,0,.05-.06ZM36.78,78.19c0-22.89,18.56-41.45,41.45-41.45s41.45,18.56,41.45,41.45-18.56,41.45-41.45,41.45h0c-22.88-.03-41.42-18.57-41.45-41.45Z"></path></svg>